<?xml version="1.0" standalone="no"?><!DOCTYPE svg PUBLIC "-//W3C//DTD SVG 1.1//EN" "http://www.w3.org/Graphics/SVG/1.1/DTD/svg11.dtd"><svg class="icon" width="200px" height="200.00px" viewBox="0 0 1024 1024" version="1.1" xmlns="http://www.w3.org/2000/svg"><path d="M326.698667 636.330667a42.666667 42.666667 0 0 1 60.330666 60.373333l-60.330666 60.309333 60.330666 60.330667a42.666667 42.666667 0 1 1-60.330666 60.352l-60.330667-60.352-60.373333 60.352a42.666667 42.666667 0 1 1-60.330667-60.352l60.330667-60.330667-60.330667-60.330666a42.666667 42.666667 0 0 1 60.330667-60.352l60.373333 60.373333 60.330667-60.373333zM234.666667 362.666667a426.666667 426.666667 0 0 1 426.666666 426.666666 42.666667 42.666667 0 0 1-85.333333 0 341.333333 341.333333 0 0 0-341.333333-341.333333 42.666667 42.666667 0 1 1 0-85.333333z" fill="#000000" fill-opacity=".88" /><path d="M234.666667 64a725.333333 725.333333 0 0 1 725.333333 725.333333 42.666667 42.666667 0 0 1-85.333333 0A640 640 0 0 0 234.666667 149.333333a42.666667 42.666667 0 0 1 0-85.333333z" fill="#000000" fill-opacity=".88" /></svg>