<?xml version="1.0" standalone="no"?><!DOCTYPE svg PUBLIC "-//W3C//DTD SVG 1.1//EN" "http://www.w3.org/Graphics/SVG/1.1/DTD/svg11.dtd"><svg class="icon" width="200px" height="200.00px" viewBox="0 0 1024 1024" version="1.1" xmlns="http://www.w3.org/2000/svg"><path d="M469.333333 938.666667v-170.666667a42.666667 42.666667 0 1 1 85.333334 0v170.666667a42.666667 42.666667 0 1 1-85.333334 0z m-168.832-275.498667a42.666667 42.666667 0 1 1 60.330667 60.330667l-120.661333 120.682666a42.666667 42.666667 0 0 1-60.373334-60.352l120.704-120.661333z m426.666667 64a42.666667 42.666667 0 0 1 60.330667 0l30.165333 30.165333a42.666667 42.666667 0 1 1-60.330667 60.330667l-30.165333-30.165333a42.666667 42.666667 0 0 1 0-60.330667zM245.333333 469.333333a42.666667 42.666667 0 1 1 0 85.333334h-149.333333a42.666667 42.666667 0 1 1 0-85.333334h149.333333z m661.333334 0a42.666667 42.666667 0 1 1 0 85.333334h-64a42.666667 42.666667 0 1 1 0-85.333334h64zM188.650667 192.064a42.666667 42.666667 0 0 1 60.352 0l90.496 90.517333a42.666667 42.666667 0 1 1-60.330667 60.330667l-90.517333-90.496a42.666667 42.666667 0 0 1 0-60.373333z m577.514666 8.832a42.666667 42.666667 0 0 1 60.330667 60.373333l-60.330667 60.309334a42.666667 42.666667 0 0 1-60.330666-60.330667l60.330666-60.352zM469.333333 202.666667v-106.666667a42.666667 42.666667 0 1 1 85.333334 0v106.666667a42.666667 42.666667 0 1 1-85.333334 0z" fill="#000000" fill-opacity=".88" /></svg>