<?xml version="1.0" standalone="no"?><!DOCTYPE svg PUBLIC "-//W3C//DTD SVG 1.1//EN" "http://www.w3.org/Graphics/SVG/1.1/DTD/svg11.dtd"><svg class="icon" width="200px" height="200.00px" viewBox="0 0 1024 1024" version="1.1" xmlns="http://www.w3.org/2000/svg"><path d="M410.026667 304.64c9.6 0 18.773333 2.410667 25.450666 9.088 6.677333 6.698667 9.109333 15.872 9.109334 25.472v24.746667c9.728 0.064 18.965333 2.56 25.685333 9.301333 6.826667 6.826667 9.301333 16.213333 9.301333 26.112v1.706667c0 9.877333-2.474667 19.264-9.301333 26.090666-6.741333 6.741333-15.957333 9.237333-25.685333 9.301334v40.618666c1.386667 0.682667 2.773333 1.450667 4.096 2.261334l14.549333 8.533333 0.149333 0.085333c2.410667 1.493333 4.672 3.136 6.72 4.949334-5.525333-6.464-7.594667-14.826667-7.594666-23.573334v-1.706666c0-9.472 2.368-18.538667 9.002666-25.152 6.613333-6.613333 15.68-8.96 25.130667-8.96h189.866667c9.450667 0 18.517333 2.346667 25.130666 8.96 6.613333 6.613333 9.002667 15.68 9.002667 25.152V469.333333c0 9.472-2.389333 18.538667-9.002667 25.152-6.613333 6.613333-15.68 8.96-25.130666 8.96h-57.6v155.306667c0 16.810667-4.288 31.36-14.634667 41.706667-10.346667 10.346667-24.917333 14.613333-41.685333 14.613333h-12.373334c-9.898667 0-19.285333-2.453333-26.112-9.28-6.826667-6.826667-9.301333-16.213333-9.301333-26.112v-1.706667c0-2.773333 0.213333-5.525333 0.64-8.192-2.346667 5.781333-5.888 10.858667-11.2 14.336-7.466667 4.906667-16.256 5.397333-24.96 3.669334h-1.962667l-1.194666-0.277334c-9.088-2.090667-17.194667-6.464-22.165334-14.250666-4.928-7.765333-5.546667-16.981333-3.84-26.24l0.042667-0.213334c6.165333-29.909333 10.517333-62.442667 13.056-97.6 0.533333-9.258667 3.370667-18.005333 10.24-24.149333 6.741333-6.037333 15.594667-7.914667 24.704-7.509333h2.304c9.301333 0.533333 18.133333 3.370667 24.32 10.261333 6.165333 6.912 8 16 7.466667 25.322667v0.234666a1004.522667 1004.522667 0 0 1-6.890667 62.826667 539.093333 539.093333 0 0 1-7.189333 44.330667 29.226667 29.226667 0 0 1 5.930666-8.64c6.144-6.144 14.357333-8.768 23.125334-9.237334V503.466667h-60.586667c-8.490667 0-16.64-1.941333-23.018667-7.104 3.328 3.712 5.845333 8.021333 7.04 13.013333 2.197333 9.152-0.426667 18.154667-5.333333 26.368l-0.725333 1.493333-0.213334 0.426667-0.213333 0.384c-5.12 8.362667-12.117333 15.04-21.44 17.28a28.586667 28.586667 0 0 1-8.149333 0.704V684.8c0 9.6-2.432 18.773333-9.109334 25.472-6.677333 6.677333-15.850667 9.088-25.450666 9.088h-1.706667c-9.6 0-18.773333-2.410667-25.472-9.088-6.677333-6.677333-9.109333-15.872-9.109333-25.472V436.48H338.346667c-9.877333 0-19.264-2.496-26.090667-9.322667-6.826667-6.826667-9.322667-16.213333-9.322667-26.090666v-1.706667c0-9.898667 2.496-19.285333 9.322667-26.112 6.826667-6.826667 16.213333-9.301333 26.090667-9.301333h35.413333V339.2c0-9.6 2.410667-18.773333 9.088-25.472 6.698667-6.677333 15.872-9.088 25.472-9.088h1.706667z m-21.056 396.48a17.429333 17.429333 0 0 0-0.128-0.213333l0.128 0.213333z m217.728-8.213333a33.877333 33.877333 0 0 1-3.029334 2.688l3.029334-2.688z m-222.208-5.226667a32.64 32.64 0 0 0-0.064-2.88l0.064 2.88z m151.082666-12.693333l-0.106666 2.986666c0-1.386667 0.085333-2.709333 0.213333-3.989333-0.042667 0.32-0.106667 0.64-0.106667 1.002667z m82.005334-6.144c0.213333-1.493333 0.384-3.029333 0.490666-4.586667v-0.149333a68.693333 68.693333 0 0 1-0.490666 4.736zM313.92 406.528a32.384 32.384 0 0 0-0.213333-2.474667l0.213333 2.474667z m141.056-30.357333a22.784 22.784 0 0 1-2.410667-0.682667l2.410667 0.682667z m-70.464-39.850667l-0.106667 2.88c0-1.28 0.085333-2.496 0.170667-3.648l-0.064 0.768z" fill="#000000" fill-opacity=".88" /><path d="M674.56 517.546667c9.109333-0.426667 17.962667 1.493333 24.704 7.509333 6.826667 6.122667 9.664 14.826667 10.24 24.021333 1.706667 20.288 3.669333 39.466667 5.909333 57.450667l1.877334 12.650667c1.216 7.829333 2.410667 14.464 3.52 19.904l1.642666 7.296 0.085334 0.32 0.064 0.32c1.664 9.045333 1.002667 18.090667-3.882667 25.664l0.021333 0.021333-0.256 0.384-0.149333 0.277333-0.021333-0.042666c-4.842667 7.765333-12.778667 12.138667-21.738667 14.186666l-1.173333 0.277334h-1.962667c-8.704 1.728-17.493333 1.216-24.96-3.669334-7.786667-5.12-11.861333-13.546667-13.76-22.784l-0.064-0.277333a1156.693333 1156.693333 0 0 1-14.208-107.648v-0.277333c-0.533333-9.322667 1.322667-18.410667 7.488-25.322667 6.186667-6.890667 15.018667-9.728 24.32-10.24l0.298667-0.021333h2.005333z m-4.693333 153.301333l1.344 1.664a19.456 19.456 0 0 1-1.557334-1.984l0.213334 0.32zM341.76 439.466667c8.597333 0 17.024 2.154667 23.210667 8.341333 6.186667 6.186667 8.362667 14.613333 8.362666 23.253333v41.792c0 47.125333-3.157333 91.477333-9.493333 133.013334l-0.042667 0.298666c-1.557333 8.597333-5.162667 16.725333-12.48 21.738667-6.997333 4.778667-15.274667 5.269333-23.296 3.669333h-1.898666l-1.066667-0.234666c-8.426667-1.792-16.064-5.717333-20.928-12.885334-4.821333-7.104-5.717333-15.658667-4.501333-24.213333l0.042666-0.234667c5.845333-35.413333 8.810667-75.797333 8.810667-121.152v-41.813333c0-8.618667 2.154667-17.045333 8.362667-23.232 6.186667-6.186667 14.613333-8.341333 23.210666-8.341333h1.706667z m-0.213333 221.397333zM675.84 321.706667c9.450667 0 18.517333 2.368 25.130667 8.981333 6.613333 6.613333 9.002667 15.68 9.002666 25.152v1.706667c0 9.450667-2.389333 18.517333-9.002666 25.130666-6.613333 6.613333-15.68 9.002667-25.130667 9.002667h-168.96c-9.472 0-18.538667-2.389333-25.152-8.981333-6.613333-6.613333-8.96-15.701333-8.96-25.173334v-1.706666c0-9.450667 2.346667-18.517333 8.96-25.130667 6.613333-6.613333 15.68-8.96 25.152-8.96h168.96z m-176.64 11.413333l-0.298667 0.085333a33.706667 33.706667 0 0 1 0.298667-0.085333z" fill="#000000" fill-opacity=".88" /><path d="M512 42.666667c259.2 0 469.333333 210.133333 469.333333 469.333333s-210.133333 469.333333-469.333333 469.333333S42.666667 771.2 42.666667 512 252.8 42.666667 512 42.666667z m0 85.333333C299.925333 128 128 299.925333 128 512s171.925333 384 384 384 384-171.925333 384-384S724.074667 128 512 128z" fill="#000000" fill-opacity=".88" /></svg>