<?xml version="1.0" standalone="no"?><!DOCTYPE svg PUBLIC "-//W3C//DTD SVG 1.1//EN" "http://www.w3.org/Graphics/SVG/1.1/DTD/svg11.dtd"><svg class="icon" width="200px" height="200.00px" viewBox="0 0 1024 1024" version="1.1" xmlns="http://www.w3.org/2000/svg"><path d="M512 298.666667c117.824 0 213.333333 95.509333 213.333333 213.333333s-95.509333 213.333333-213.333333 213.333333-213.333333-95.509333-213.333333-213.333333 95.509333-213.333333 213.333333-213.333333z m0 85.333333a128 128 0 1 0 0 256 128 128 0 0 0 0-256z" fill="#000000" fill-opacity=".88" /><path d="M733.866667 85.333333c35.136 0 64.064-0.021333 87.552 1.898667 23.978667 1.962667 46.016 6.165333 66.730666 16.704a170.666667 170.666667 0 0 1 74.581334 74.581333c10.56 20.693333 14.741333 42.752 16.704 66.730667 1.92 23.466667 1.898667 52.416 1.898666 87.552v358.4c0 35.136 0.021333 64.064-1.898666 87.552-1.962667 23.978667-6.144 46.016-16.704 66.730667a170.666667 170.666667 0 0 1-74.581334 74.581333c-20.693333 10.56-42.752 14.741333-66.730666 16.704-23.466667 1.92-52.416 1.898667-87.552 1.898667H290.133333c-35.136 0-64.064 0.021333-87.552-1.898667-23.978667-1.962667-46.016-6.144-66.730666-16.704a170.666667 170.666667 0 0 1-74.581334-74.581333c-10.538667-20.693333-14.741333-42.752-16.704-66.730667C42.645333 755.285333 42.666667 726.336 42.666667 691.2V332.8c0-35.136-0.021333-64.064 1.898666-87.552 1.962667-23.978667 6.165333-46.016 16.704-66.730667a170.666667 170.666667 0 0 1 74.581334-74.581333c20.693333-10.538667 42.752-14.741333 66.730666-16.704C226.048 85.312 254.997333 85.333333 290.133333 85.333333h443.733334zM290.133333 170.666667c-36.544 0-61.397333 0.042667-80.597333 1.6-18.709333 1.536-28.288 4.288-34.944 7.68a85.354667 85.354667 0 0 0-37.290667 37.312c-3.413333 6.656-6.186667 16.234667-7.68 34.944-1.578667 19.2-1.621333 44.053333-1.621333 80.597333v358.4c0 36.544 0.042667 61.397333 1.6 80.597333 1.536 18.709333 4.288 28.288 7.68 34.944a85.354667 85.354667 0 0 0 37.312 37.290667c6.656 3.413333 16.234667 6.186667 34.944 7.68 19.2 1.578667 44.053333 1.621333 80.597333 1.621333h443.733334c36.544 0 61.397333-0.042667 80.597333-1.6 18.709333-1.536 28.288-4.288 34.944-7.68a85.376 85.376 0 0 0 37.290667-37.312c3.413333-6.656 6.186667-16.234667 7.68-34.944 1.578667-19.2 1.621333-44.053333 1.621333-80.597333V332.8c0-36.544-0.042667-61.397333-1.6-80.597333-1.536-18.709333-4.288-28.288-7.68-34.944a85.354667 85.354667 0 0 0-37.312-37.290667c-6.656-3.413333-16.234667-6.186667-34.944-7.68C795.264 170.688 770.410667 170.666667 733.866667 170.666667H290.133333z" fill="#000000" fill-opacity=".88" /></svg>