<?xml version="1.0" standalone="no"?><!DOCTYPE svg PUBLIC "-//W3C//DTD SVG 1.1//EN" "http://www.w3.org/Graphics/SVG/1.1/DTD/svg11.dtd"><svg class="icon" width="200px" height="200.00px" viewBox="0 0 1024 1024" version="1.1" xmlns="http://www.w3.org/2000/svg"><path d="M896 357.44c0-15.978667-0.042667-20.864-0.426667-24.533333a85.333333 85.333333 0 0 0-76.48-76.48c-3.669333-0.362667-8.896-0.426667-25.749333-0.426667-5.44 0-10.048 0.021333-14.250667-0.213333a128 128 0 0 1-111.018666-80.042667c-1.557333-3.882667-2.922667-8.042667-4.544-12.906667a184.32 184.32 0 0 0-2.773334-8.106666 42.666667 42.666667 0 0 0-37.013333-26.666667 172.842667 172.842667 0 0 0-8.533333-0.064h-206.421334c-6.250667 0-7.552 0.021333-8.533333 0.085333a42.666667 42.666667 0 0 0-37.013333 26.666667c-0.362667 0.896-0.789333 2.133333-2.773334 8.085333-1.6 4.864-2.986667 9.024-4.544 12.906667a128 128 0 0 1-111.04 80.021333c-4.181333 0.256-8.789333 0.234667-14.229333 0.234667-16.853333 0-22.08 0.064-25.749333 0.426667a85.333333 85.333333 0 0 0-76.48 76.48c-0.362667 3.669333-0.426667 8.554667-0.426667 24.533333l0.021333 359.082667c0.085333 23.296 0.426667 40.874667 1.578667 55.253333 1.536 18.730667 4.288 28.309333 7.68 34.986667a85.333333 85.333333 0 0 0 37.312 37.269333c6.656 3.413333 16.234667 6.186667 34.944 7.68 19.2 1.578667 44.053333 1.621333 80.597333 1.621333h443.733334c36.544 0 61.397333-0.042667 80.597333-1.6 18.709333-1.536 28.288-4.288 34.944-7.68a85.354667 85.354667 0 0 0 37.290667-37.312c3.413333-6.656 6.186667-16.234667 7.68-34.944 1.578667-19.2 1.621333-44.053333 1.621333-80.597333V357.44zM640 533.333333a128 128 0 1 0-256 0 128 128 0 0 0 256 0z m85.333333 0c0 117.824-95.509333 213.333333-213.333333 213.333334s-213.333333-95.509333-213.333333-213.333334 95.509333-213.333333 213.333333-213.333333 213.333333 95.509333 213.333333 213.333333z m256 157.866667c0 35.136 0.021333 64.064-1.898666 87.552-1.962667 23.978667-6.144 46.016-16.704 66.730667a170.666667 170.666667 0 0 1-74.581334 74.581333c-20.693333 10.56-42.752 14.741333-66.730666 16.704-23.466667 1.92-52.416 1.898667-87.552 1.898667H290.133333c-35.136 0-64.064 0.021333-87.552-1.898667-23.978667-1.962667-46.016-6.144-66.730666-16.704a170.666667 170.666667 0 0 1-74.581334-74.581333c-10.538667-20.693333-14.741333-42.752-16.704-66.730667-1.450667-17.621333-1.792-38.293333-1.877333-62.357333L42.666667 357.44c0-13.930667-0.042667-24.021333 0.853333-32.938667A170.666667 170.666667 0 0 1 196.48 171.498667c8.938667-0.874667 19.477333-0.832 34.133333-0.832 6.698667 0 8.149333-0.021333 9.109334-0.085334a42.666667 42.666667 0 0 0 37.013333-26.666666c0.362667-0.896 0.789333-2.133333 2.773333-8.085334 1.6-4.864 2.986667-9.024 4.544-12.906666A128 128 0 0 1 395.093333 42.88c4.181333-0.256 8.576-0.234667 13.696-0.234667h206.421334c5.12 0 9.514667-0.021333 13.696 0.213334a128 128 0 0 1 111.018666 80.042666c1.557333 3.882667 2.944 8.042667 4.565334 12.906667 1.962667 5.952 2.389333 7.189333 2.773333 8.106667a42.666667 42.666667 0 0 0 36.992 26.666666c0.96 0.042667 2.410667 0.064 9.088 0.064 14.677333 0 25.216-0.042667 34.154667 0.853334a170.666667 170.666667 0 0 1 153.002666 152.96c0.874667 8.96 0.832 19.029333 0.832 32.96V691.2z" fill="#000000" fill-opacity=".88" /></svg>