<?xml version="1.0" standalone="no"?><!DOCTYPE svg PUBLIC "-//W3C//DTD SVG 1.1//EN" "http://www.w3.org/Graphics/SVG/1.1/DTD/svg11.dtd"><svg class="icon" width="200px" height="200.00px" viewBox="0 0 1024 1024" version="1.1" xmlns="http://www.w3.org/2000/svg"><path d="M533.333333 85.333333a42.666667 42.666667 0 1 1 0 85.333334h-174.933333c-48.490667 0-82.304 0.042667-108.629333 2.197333-25.813333 2.090667-40.64 6.037333-51.882667 11.754667a128 128 0 0 0-55.936 55.936c-5.717333 11.242667-9.664 26.069333-11.754667 51.882666C128.042667 318.762667 128 352.576 128 401.066667v221.866666c0 48.490667 0.042667 82.304 2.197333 108.629334 2.090667 25.813333 6.037333 40.64 11.754667 51.882666a128 128 0 0 0 55.936 55.936c11.242667 5.717333 26.069333 9.664 51.882667 11.776 26.325333 2.133333 60.138667 2.176 108.629333 2.176h307.2c48.490667 0 82.304-0.042667 108.629333-2.176 25.813333-2.133333 40.64-6.058667 51.882667-11.776a128 128 0 0 0 55.936-55.936c5.717333-11.242667 9.664-26.069333 11.776-51.882666 2.133333-26.325333 2.176-60.138667 2.176-108.629334V490.666667a42.666667 42.666667 0 1 1 85.333333 0v132.266666c0 47.082667 0.042667 84.970667-2.453333 115.562667-2.56 31.104-7.914667 58.432-20.8 83.690667a213.354667 213.354667 0 0 1-93.226667 93.226666c-25.258667 12.885333-52.586667 18.261333-83.690666 20.8-30.592 2.496-68.48 2.453333-115.562667 2.453334H358.4c-47.082667 0-84.970667 0.042667-115.562667-2.453334-31.104-2.56-58.410667-7.914667-83.690666-20.8a213.333333 213.333333 0 0 1-93.226667-93.226666c-12.885333-25.258667-18.261333-52.586667-20.8-83.690667C42.624 707.904 42.666667 670.016 42.666667 622.933333V401.066667c0-47.082667-0.042667-84.970667 2.453333-115.562667 2.56-31.104 7.914667-58.410667 20.8-83.690667a213.333333 213.333333 0 0 1 93.226667-93.226666c25.28-12.885333 52.586667-18.261333 83.690666-20.8C273.429333 85.290667 311.317333 85.333333 358.4 85.333333H533.333333z" fill="#000000" fill-opacity=".88" /><path d="M512 298.666667c117.824 0 213.333333 95.509333 213.333333 213.333333s-95.509333 213.333333-213.333333 213.333333-213.333333-95.509333-213.333333-213.333333 95.509333-213.333333 213.333333-213.333333z m0 85.333333a128 128 0 1 0 0 256 128 128 0 0 0 0-256z" fill="#000000" fill-opacity=".88" /><path d="M790.314667 64.810667c6.250667-19.925333 34.453333-19.925333 40.704 0l27.306666 86.912a21.333333 21.333333 0 0 0 13.952 13.952l86.912 27.306666c19.904 6.250667 19.904 34.453333 0 40.704l-86.933333 27.306667a21.376 21.376 0 0 0-13.952 13.973333l-27.306667 86.912c-6.250667 19.904-34.432 19.904-40.682666 0l-27.306667-86.933333a21.354667 21.354667 0 0 0-13.952-13.973333l-86.912-27.306667c-19.925333-6.229333-19.925333-34.432 0-40.682667l86.912-27.306666a21.333333 21.333333 0 0 0 13.952-13.952l27.306667-86.912z" fill="#000000" fill-opacity=".88" /></svg>