<?xml version="1.0" standalone="no"?><!DOCTYPE svg PUBLIC "-//W3C//DTD SVG 1.1//EN" "http://www.w3.org/Graphics/SVG/1.1/DTD/svg11.dtd"><svg class="icon" width="200px" height="200.00px" viewBox="0 0 1024 1024" version="1.1" xmlns="http://www.w3.org/2000/svg"><path d="M896 733.866667c0-24.597333-0.042667-40.490667-1.024-52.565334-0.938667-11.605333-2.56-15.893333-3.626667-18.005333a42.666667 42.666667 0 0 0-18.645333-18.645333c-2.112-1.066667-6.4-2.688-17.984-3.626667-12.096-0.981333-27.989333-1.024-52.586667-1.024H221.866667c-24.597333 0-40.490667 0.042667-52.565334 1.024-11.605333 0.938667-15.893333 2.56-18.005333 3.626667a42.666667 42.666667 0 0 0-18.645333 18.645333c-1.066667 2.112-2.688 6.4-3.626667 18.005333C128.042667 693.376 128 709.248 128 733.866667v68.266666c0 24.597333 0.042667 40.490667 1.024 52.586667 0.938667 11.584 2.56 15.872 3.626667 17.984a42.666667 42.666667 0 0 0 18.645333 18.645333c2.112 1.066667 6.4 2.688 18.005333 3.626667 12.074667 0.981333 27.968 1.024 52.565334 1.024h580.266666c24.597333 0 40.490667-0.042667 52.586667-1.024 11.584-0.938667 15.872-2.56 17.984-3.626667a42.666667 42.666667 0 0 0 18.645333-18.645333c1.066667-2.112 2.688-6.4 3.626667-17.984 0.981333-12.096 1.024-27.989333 1.024-52.586667v-68.266666zM256.426667 725.333333a42.666667 42.666667 0 1 1 0 85.333334H256a42.666667 42.666667 0 1 1 0-85.333334h0.426667zM896 221.866667c0-24.597333-0.042667-40.490667-1.024-52.565334-0.938667-11.605333-2.56-15.893333-3.626667-18.005333a42.666667 42.666667 0 0 0-18.645333-18.645333c-2.112-1.066667-6.4-2.688-17.984-3.626667C842.624 128.042667 826.730667 128 802.133333 128H221.866667c-24.597333 0-40.490667 0.042667-52.565334 1.024-11.605333 0.938667-15.893333 2.56-18.005333 3.626667a42.666667 42.666667 0 0 0-18.645333 18.645333c-1.066667 2.112-2.688 6.4-3.626667 18.005333C128.042667 181.376 128 197.269333 128 221.866667v68.266666c0 24.597333 0.042667 40.490667 1.024 52.565334 0.938667 11.605333 2.56 15.893333 3.626667 18.005333a42.666667 42.666667 0 0 0 18.645333 18.645333c2.112 1.066667 6.4 2.688 18.005333 3.626667 12.074667 0.981333 27.968 1.024 52.565334 1.024h580.266666c24.597333 0 40.490667-0.042667 52.586667-1.024 11.584-0.938667 15.872-2.56 17.984-3.626667a42.666667 42.666667 0 0 0 18.645333-18.645333c1.066667-2.112 2.688-6.4 3.626667-18.005333 0.981333-12.074667 1.024-27.968 1.024-52.565334v-68.266666zM256.426667 213.333333a42.666667 42.666667 0 1 1 0 85.333334H256a42.666667 42.666667 0 1 1 0-85.333334h0.426667zM981.333333 802.133333c0 23.189333 0.021333 43.136-1.322666 59.52-1.365333 16.853333-4.416 33.642667-12.629334 49.792a128 128 0 0 1-55.936 55.936c-16.149333 8.213333-32.938667 11.264-49.792 12.650667-16.384 1.322667-36.330667 1.301333-59.52 1.301333H221.866667c-23.189333 0-43.136 0.021333-59.52-1.322666-16.853333-1.365333-33.642667-4.416-49.792-12.629334a128 128 0 0 1-55.936-55.936c-8.213333-16.149333-11.264-32.938667-12.629334-49.792C42.645333 845.269333 42.666667 825.322667 42.666667 802.133333v-68.266666c0-23.189333-0.021333-43.136 1.322666-59.52 1.365333-16.853333 4.416-33.642667 12.629334-49.792a128 128 0 0 1 55.936-55.936c16.149333-8.213333 32.938667-11.264 49.792-12.650667C178.730667 554.666667 198.677333 554.666667 221.866667 554.666667h580.266666c23.189333 0 43.136-0.021333 59.52 1.301333 16.853333 1.386667 33.642667 4.437333 49.792 12.650667a128 128 0 0 1 55.936 55.936c8.213333 16.149333 11.264 32.938667 12.650667 49.792 1.322667 16.384 1.301333 36.330667 1.301333 59.52v68.266666z m0-512c0 23.189333 0.021333 43.136-1.322666 59.52-1.365333 16.853333-4.416 33.642667-12.629334 49.792a128 128 0 0 1-55.936 55.936c-16.149333 8.213333-32.938667 11.264-49.792 12.650667-16.384 1.322667-36.330667 1.301333-59.52 1.301333H221.866667c-23.189333 0-43.136 0.021333-59.52-1.301333-16.853333-1.386667-33.642667-4.437333-49.792-12.650667a128 128 0 0 1-55.936-55.936c-8.213333-16.149333-11.264-32.938667-12.629334-49.792C42.645333 333.269333 42.666667 313.301333 42.666667 290.133333v-68.266666c0-23.189333-0.021333-43.136 1.322666-59.52 1.365333-16.853333 4.416-33.642667 12.629334-49.792a128 128 0 0 1 55.936-55.936c16.149333-8.213333 32.938667-11.264 49.792-12.629334C178.730667 42.645333 198.677333 42.666667 221.866667 42.666667h580.266666c23.189333 0 43.136-0.021333 59.52 1.322666 16.853333 1.365333 33.642667 4.416 49.792 12.629334a128 128 0 0 1 55.936 55.936c8.213333 16.149333 11.264 32.938667 12.650667 49.792C981.333333 178.730667 981.333333 198.677333 981.333333 221.866667v68.266666z" fill="#000000" fill-opacity=".88" /></svg>