<?xml version="1.0" standalone="no"?><!DOCTYPE svg PUBLIC "-//W3C//DTD SVG 1.1//EN" "http://www.w3.org/Graphics/SVG/1.1/DTD/svg11.dtd"><svg class="icon" width="200px" height="200.00px" viewBox="0 0 1024 1024" version="1.1" xmlns="http://www.w3.org/2000/svg"><path d="M225.834667 268.501333a42.666667 42.666667 0 0 1 60.330666 0l213.333334 213.333334a42.666667 42.666667 0 0 1 0 60.330666l-213.333334 213.333334a42.666667 42.666667 0 0 1-60.330666-60.330667L409.002667 512l-183.168-183.168a42.666667 42.666667 0 0 1 0-60.330667z" fill="#000000" fill-opacity=".88" /><path d="M524.501333 268.501333a42.666667 42.666667 0 0 1 60.330667 0l213.333333 213.333334a42.666667 42.666667 0 0 1 0 60.330666l-213.333333 213.333334a42.666667 42.666667 0 0 1-60.330667-60.330667L707.669333 512l-183.168-183.168a42.666667 42.666667 0 0 1 0-60.330667z" fill="#000000" fill-opacity=".88" /></svg>