<?xml version="1.0" standalone="no"?><!DOCTYPE svg PUBLIC "-//W3C//DTD SVG 1.1//EN" "http://www.w3.org/Graphics/SVG/1.1/DTD/svg11.dtd"><svg class="icon" width="200px" height="200.00px" viewBox="0 0 1024 1024" version="1.1" xmlns="http://www.w3.org/2000/svg"><path d="M512 234.666667a42.666667 42.666667 0 0 1 42.666667 42.666666v85.333334h85.333333a128 128 0 0 1 128 128v42.666666a128 128 0 0 1-128 128h-85.333333v85.333334a42.666667 42.666667 0 1 1-85.333334 0v-85.333334h-85.333333a128 128 0 0 1-128-128v-42.666666a128 128 0 0 1 128-128h85.333333v-85.333334a42.666667 42.666667 0 0 1 42.666667-42.666666z m42.666667 341.333333h85.333333a42.666667 42.666667 0 0 0 42.666667-42.666667v-42.666666a42.666667 42.666667 0 0 0-42.666667-42.666667h-85.333333v128z m-170.666667-128a42.666667 42.666667 0 0 0-42.666667 42.666667v42.666666a42.666667 42.666667 0 0 0 42.666667 42.666667h85.333333v-128h-85.333333z" fill="#000000" fill-opacity=".88" /><path d="M512 42.666667c259.2 0 469.333333 210.133333 469.333333 469.333333s-210.133333 469.333333-469.333333 469.333333S42.666667 771.2 42.666667 512 252.8 42.666667 512 42.666667z m0 85.333333C299.925333 128 128 299.925333 128 512s171.925333 384 384 384 384-171.925333 384-384S724.074667 128 512 128z" fill="#000000" fill-opacity=".88" /></svg>