<?xml version="1.0" standalone="no"?><!DOCTYPE svg PUBLIC "-//W3C//DTD SVG 1.1//EN" "http://www.w3.org/Graphics/SVG/1.1/DTD/svg11.dtd"><svg class="icon" width="200px" height="200.00px" viewBox="0 0 1024 1024" version="1.1" xmlns="http://www.w3.org/2000/svg"><path d="M896 512c0-212.074667-171.925333-384-384-384S128 299.925333 128 512s171.925333 384 384 384 384-171.925333 384-384zM469.333333 256a42.666667 42.666667 0 1 1 85.333334 0v229.632l147.093333 73.536a42.666667 42.666667 0 0 1-38.186667 76.330667l-170.666666-85.333334A42.666667 42.666667 0 0 1 469.333333 512V256z m512 256c0 259.2-210.133333 469.333333-469.333333 469.333333S42.666667 771.2 42.666667 512 252.8 42.666667 512 42.666667s469.333333 210.133333 469.333333 469.333333z" fill="#000000" fill-opacity=".88" /></svg>