<?xml version="1.0" standalone="no"?><!DOCTYPE svg PUBLIC "-//W3C//DTD SVG 1.1//EN" "http://www.w3.org/Graphics/SVG/1.1/DTD/svg11.dtd"><svg class="icon" width="200px" height="200.00px" viewBox="0 0 1024 1024" version="1.1" xmlns="http://www.w3.org/2000/svg"><path d="M853.333333 371.157333l-298.666666 165.952V866.133333l285.504-158.592c6.826667-3.797333 10.304-5.76 12.736-7.296l0.213333-0.149333 0.021333-0.213333c0.170667-2.901333 0.192-6.912 0.192-14.72V371.157333zM511.786667 134.442667c-2.453333 1.194667-5.76 3.029333-12.224 6.613333L215.850667 298.666667 512 463.189333 808.106667 298.666667 524.458667 141.056a282.709333 282.709333 0 0 0-12.224-6.613333L512 134.357333l-0.213333 0.085334zM170.666667 685.162667c0 7.808 0 11.818667 0.192 14.72v0.213333l0.213333 0.149333c2.453333 1.557333 5.952 3.498667 12.757333 7.296L469.333333 866.133333V537.088L170.666667 371.178667v314.005333z m768 9.408c-0.085333 9.984-0.704 21.482667-4.309334 32.426666a85.376 85.376 0 0 1-18.282666 31.061334c-10.410667 11.306667-24.256 18.410667-34.474667 24.085333l-315.733333 175.402667c-9.685333 5.376-22.357333 12.928-36.693334 15.893333a85.333333 85.333333 0 0 1-34.346666 0c-14.336-2.965333-27.008-10.517333-36.693334-15.893333l-315.733333-175.402667c-10.218667-5.674667-24.064-12.8-34.474667-24.106667a85.354667 85.354667 0 0 1-18.282666-31.04c-3.626667-10.944-4.224-22.442667-4.309334-32.426666V329.408c0.085333-9.984 0.704-21.482667 4.309334-32.426667 3.818667-11.52 10.026667-22.122667 18.282666-31.04 10.410667-11.306667 24.256-18.389333 34.474667-24.064l315.733333-175.424c9.685333-5.376 22.357333-12.949333 36.693334-15.893333a85.333333 85.333333 0 0 1 34.346666 0c14.336 2.944 27.008 10.517333 36.693334 15.893333l315.733333 175.424c10.218667 5.674667 24.064 12.757333 34.474667 24.064 8.234667 8.917333 14.464 19.52 18.282666 31.061334 3.626667 10.922667 4.224 22.4 4.309334 32.426666v365.141334z" fill="#000000" fill-opacity=".88" /></svg>