<?xml version="1.0" standalone="no"?><!DOCTYPE svg PUBLIC "-//W3C//DTD SVG 1.1//EN" "http://www.w3.org/Graphics/SVG/1.1/DTD/svg11.dtd"><svg class="icon" width="200px" height="200.00px" viewBox="0 0 1024 1024" version="1.1" xmlns="http://www.w3.org/2000/svg"><path d="M610.133333 234.666667c23.168 0 43.136-0.021333 59.52 1.322666 16.853333 1.365333 33.642667 4.416 49.792 12.629334a128 128 0 0 1 55.936 55.936c8.213333 16.149333 11.264 32.938667 12.650667 49.792 1.322667 16.384 1.301333 36.352 1.301333 59.52v345.6c0 23.189333 0.021333 43.136-1.322666 59.52-1.365333 16.853333-4.416 33.642667-12.629334 49.792a128 128 0 0 1-55.936 55.936c-16.149333 8.213333-32.938667 11.264-49.792 12.650666-16.384 1.322667-36.352 1.301333-59.52 1.301334H264.533333c-23.189333 0-43.136 0.021333-59.52-1.322667-16.853333-1.365333-33.642667-4.416-49.792-12.629333a128 128 0 0 1-55.936-55.936c-8.213333-16.149333-11.264-32.938667-12.629333-49.792C85.312 802.602667 85.333333 782.656 85.333333 759.466667V413.866667c0-23.168-0.021333-43.136 1.322667-59.52 1.365333-16.853333 4.416-33.642667 12.629333-49.792a128 128 0 0 1 55.936-55.936c16.149333-8.213333 32.938667-11.264 49.792-12.629334 16.384-1.344 36.352-1.322667 59.52-1.322666h345.6z m-345.6 85.333333c-24.597333 0-40.490667 0.042667-52.565333 1.024-11.605333 0.938667-15.893333 2.56-18.005333 3.626667a42.666667 42.666667 0 0 0-18.645334 18.645333c-1.066667 2.112-2.688 6.4-3.626666 18.005333C170.709333 373.376 170.666667 389.269333 170.666667 413.866667v345.6c0 24.597333 0.042667 40.490667 1.024 52.586666 0.938667 11.584 2.56 15.872 3.626666 17.984a42.666667 42.666667 0 0 0 18.645334 18.645334c2.112 1.066667 6.4 2.688 18.005333 3.626666 12.074667 1.002667 27.968 1.024 52.565333 1.024h345.6c24.597333 0 40.490667-0.042667 52.565334-1.024 11.605333-0.938667 15.893333-2.56 18.005333-3.626666a42.666667 42.666667 0 0 0 18.645333-18.645334c1.066667-2.112 2.688-6.4 3.626667-17.984 0.981333-12.096 1.024-27.989333 1.024-52.586666V413.866667c0-24.597333-0.042667-40.490667-1.024-52.565334-0.938667-11.605333-2.56-15.893333-3.626667-18.005333a42.666667 42.666667 0 0 0-18.645333-18.645333c-2.112-1.066667-6.4-2.688-18.005333-3.626667-12.074667-0.981333-27.968-1.024-52.565334-1.024H264.533333z" fill="#000000" fill-opacity=".88" /><path d="M622.933333 85.333333c47.082667 0 84.970667-0.042667 115.562667 2.453334 31.104 2.56 58.432 7.914667 83.690667 20.8a213.333333 213.333333 0 0 1 93.226666 93.226666c12.885333 25.258667 18.261333 52.586667 20.8 83.690667 2.496 30.592 2.453333 68.48 2.453334 115.562667V704a42.666667 42.666667 0 1 1-85.333334 0V401.066667c0-48.490667-0.042667-82.304-2.176-108.629334-2.133333-25.813333-6.058667-40.64-11.776-51.882666a128 128 0 0 0-55.936-55.936c-11.242667-5.717333-26.069333-9.664-51.882666-11.754667C705.237333 170.709333 671.424 170.666667 622.933333 170.666667H320a42.666667 42.666667 0 1 1 0-85.333334h302.933333z" fill="#000000" fill-opacity=".88" /></svg>