<?xml version="1.0" standalone="no"?><!DOCTYPE svg PUBLIC "-//W3C//DTD SVG 1.1//EN" "http://www.w3.org/Graphics/SVG/1.1/DTD/svg11.dtd"><svg class="icon" width="200px" height="200.00px" viewBox="0 0 1024 1024" version="1.1" xmlns="http://www.w3.org/2000/svg"><path d="M85.333333 691.2V640a42.666667 42.666667 0 1 1 85.333334 0v51.2c0 36.544 0.042667 61.397333 1.6 80.597333 1.536 18.709333 4.288 28.288 7.68 34.944a85.354667 85.354667 0 0 0 37.312 37.290667c6.656 3.413333 16.234667 6.186667 34.944 7.68 19.2 1.578667 44.053333 1.621333 80.597333 1.621333h358.4c36.544 0 61.397333-0.042667 80.597333-1.6 18.709333-1.536 28.288-4.288 34.944-7.68a85.376 85.376 0 0 0 37.290667-37.312c3.413333-6.656 6.186667-16.234667 7.68-34.944 1.578667-19.2 1.621333-44.053333 1.621333-80.597333V640a42.666667 42.666667 0 1 1 85.333334 0v51.2c0 35.136 0.021333 64.064-1.898667 87.552-1.962667 23.978667-6.144 46.016-16.704 66.730667a170.666667 170.666667 0 0 1-74.581333 74.581333c-20.693333 10.56-42.752 14.741333-66.730667 16.704-23.466667 1.92-52.416 1.898667-87.552 1.898667H332.8c-35.136 0-64.064 0.021333-87.552-1.898667-23.978667-1.962667-46.016-6.144-66.730667-16.704a170.666667 170.666667 0 0 1-74.581333-74.581333c-10.538667-20.693333-14.741333-42.752-16.704-66.730667C85.312 755.285333 85.333333 726.336 85.333333 691.2zM469.333333 128a42.666667 42.666667 0 1 1 85.333334 0v409.002667l140.501333-140.501334a42.666667 42.666667 0 1 1 60.330667 60.330667l-213.333334 213.333333a42.666667 42.666667 0 0 1-60.330666 0l-213.333334-213.333333a42.666667 42.666667 0 1 1 60.330667-60.330667L469.333333 537.002667V128z" fill="#000000" fill-opacity=".88" /></svg>