<?xml version="1.0" standalone="no"?><!DOCTYPE svg PUBLIC "-//W3C//DTD SVG 1.1//EN" "http://www.w3.org/Graphics/SVG/1.1/DTD/svg11.dtd"><svg class="icon" width="200px" height="200.00px" viewBox="0 0 1024 1024" version="1.1" xmlns="http://www.w3.org/2000/svg"><path d="M673.834667 119.146667a133.184 133.184 0 0 1 188.330666 188.373333L326.186667 843.477333c-13.312 13.333333-24.704 25.109333-38.613334 33.642667a128.106667 128.106667 0 0 1-37.013333 15.317333c-11.904 2.858667-24.106667 3.413333-37.397333 3.52h-85.12a42.666667 42.666667 0 0 1-42.688-42.666666v-71.424c0-18.837333-0.277333-35.2 3.541333-51.093334a128.042667 128.042667 0 0 1 15.317333-36.992c8.533333-13.909333 20.309333-25.301333 33.621334-38.613333L673.834667 119.125333zM896 810.666667a42.666667 42.666667 0 0 1 0 85.333333H512a42.666667 42.666667 0 0 1 0-85.333333h384zM170.666667 810.666667H199.466667c22.890667 0 27.413333-0.256 31.189333-1.152 4.352-1.066667 8.512-2.773333 12.330667-5.12 3.306667-2.005333 6.677333-5.013333 22.848-21.205334l536.021333-536.021333a47.829333 47.829333 0 1 0-67.669333-67.626667L198.186667 715.477333c-16.192 16.213333-19.2 19.584-21.205334 22.890667-2.346667 3.818667-4.053333 7.978667-5.12 12.330667-0.896 3.776-1.173333 8.256-1.173333 31.146666V810.666667z" fill="#000000" fill-opacity=".88" /></svg>