<?xml version="1.0" standalone="no"?><!DOCTYPE svg PUBLIC "-//W3C//DTD SVG 1.1//EN" "http://www.w3.org/Graphics/SVG/1.1/DTD/svg11.dtd"><svg class="icon" width="200px" height="200.00px" viewBox="0 0 1024 1024" version="1.1" xmlns="http://www.w3.org/2000/svg"><path d="M42.666667 733.866667V375.466667c0-35.136-0.021333-64.064 1.898666-87.530667 1.962667-24 6.144-46.058667 16.704-66.773333a170.666667 170.666667 0 0 1 74.581334-74.56c20.693333-10.56 42.752-14.762667 66.730666-16.725334C226.048 127.957333 254.997333 128 290.133333 128H469.333333a42.666667 42.666667 0 0 1 0 85.333333h-179.2c-36.544 0-61.397333 0.021333-80.597333 1.6-18.709333 1.514667-28.288 4.309333-34.944 7.701334a85.376 85.376 0 0 0-37.290667 37.290666c-3.413333 6.677333-6.186667 16.234667-7.68 34.944-1.578667 19.2-1.621333 44.053333-1.621333 80.597334v358.4c0 36.544 0.042667 61.397333 1.6 80.597333 1.536 18.709333 4.288 28.266667 7.68 34.944a85.333333 85.333333 0 0 0 37.312 37.290667c6.656 3.413333 16.234667 6.186667 34.944 7.701333 19.2 1.578667 44.053333 1.6 80.597333 1.6h358.4c36.544 0 61.397333-0.021333 80.597334-1.6 18.709333-1.514667 28.288-4.309333 34.944-7.701333a85.354667 85.354667 0 0 0 37.290666-37.290667c3.413333-6.677333 6.186667-16.234667 7.68-34.944 1.578667-19.2 1.621333-44.053333 1.621334-80.597333V554.666667a42.666667 42.666667 0 0 1 85.333333 0v179.2c0 35.136 0.021333 64.064-1.898667 87.530666-1.962667 24-6.144 46.058667-16.704 66.773334a170.666667 170.666667 0 0 1-74.581333 74.56c-20.693333 10.56-42.752 14.762667-66.730667 16.725333-23.466667 1.92-52.416 1.856-87.552 1.856H290.133333c-35.136 0-64.064 0.064-87.552-1.856-23.978667-1.962667-46.016-6.186667-66.730666-16.725333a170.666667 170.666667 0 0 1-74.581334-74.581334c-10.56-20.693333-14.741333-42.752-16.704-66.752C42.645333 797.930667 42.666667 769.002667 42.666667 733.866667zM759.168 76.48a133.184 133.184 0 0 1 188.330667 188.373333L539.52 672.853333c-13.312 13.312-24.704 25.088-38.613333 33.621334a128 128 0 0 1-37.013334 15.317333c-11.904 2.858667-24.106667 3.413333-37.397333 3.52H341.333333a42.666667 42.666667 0 0 1-42.666666-42.666667v-71.424c0-18.837333-0.277333-35.2 3.541333-51.093333a128.021333 128.021333 0 0 1 15.317333-36.992c8.533333-13.909333 20.309333-25.301333 33.621334-38.613333L759.168 76.458667zM384 640h28.778667c22.869333 0 27.392-0.277333 31.146666-1.173333 4.352-1.066667 8.533333-2.773333 12.352-5.12 3.306667-2.005333 6.677333-5.013333 22.869334-21.205334L887.168 204.48a47.829333 47.829333 0 1 0-67.669333-67.626667L411.52 544.853333c-16.192 16.192-19.2 19.562667-21.205333 22.869334a42.666667 42.666667 0 0 0-5.12 12.330666c-0.896 3.776-1.173333 8.256-1.173334 31.146667V640z" fill="#000000" /></svg>