<?xml version="1.0" standalone="no"?><!DOCTYPE svg PUBLIC "-//W3C//DTD SVG 1.1//EN" "http://www.w3.org/Graphics/SVG/1.1/DTD/svg11.dtd"><svg class="icon" width="200px" height="200.00px" viewBox="0 0 1024 1024" version="1.1" xmlns="http://www.w3.org/2000/svg"><path d="M688.405333 121.045333A42.666667 42.666667 0 0 1 746.666667 105.472C886.848 186.56 981.333333 338.218667 981.333333 512c0 259.2-210.133333 469.333333-469.333333 469.333333S42.666667 771.2 42.666667 512C42.666667 338.218667 137.130667 186.56 277.312 105.472a42.666667 42.666667 0 1 1 42.709333 73.877333C205.141333 245.824 128 369.92 128 512c0 212.074667 171.925333 384 384 384s384-171.925333 384-384c0-142.08-77.141333-266.176-192.021333-332.650667a42.688 42.688 0 0 1-15.573334-58.304z" fill="#000000" fill-opacity=".88" /><path d="M512 42.666667a42.666667 42.666667 0 0 1 42.666667 42.666666v384a42.666667 42.666667 0 1 1-85.333334 0V85.333333a42.666667 42.666667 0 0 1 42.666667-42.666666z" fill="#000000" fill-opacity=".88" /></svg>