<?xml version="1.0" standalone="no"?><!DOCTYPE svg PUBLIC "-//W3C//DTD SVG 1.1//EN" "http://www.w3.org/Graphics/SVG/1.1/DTD/svg11.dtd"><svg class="icon" width="200px" height="200.00px" viewBox="0 0 1024 1024" version="1.1" xmlns="http://www.w3.org/2000/svg"><path d="M512 42.666667c259.2 0 469.333333 210.133333 469.333333 469.333333s-210.133333 469.333333-469.333333 469.333333S42.666667 771.2 42.666667 512 252.8 42.666667 512 42.666667z m0 85.333333C299.925333 128 128 299.925333 128 512s171.925333 384 384 384 384-171.925333 384-384S724.074667 128 512 128z" fill="#000000" fill-opacity=".88" /><path d="M458.666667 341.333333a42.666667 42.666667 0 1 1 0 85.333334H341.333333v42.666666h117.333334a42.666667 42.666667 0 1 1 0 85.333334H341.333333v42.666666h117.333334a42.666667 42.666667 0 1 1 0 85.333334h-149.333334a42.666667 42.666667 0 0 1-5.333333-0.405334A42.666667 42.666667 0 0 1 298.666667 682.666667a42.666667 42.666667 0 0 1-42.666667-42.666667V384a42.666667 42.666667 0 0 1 42.666667-42.666667h160zM650.666667 405.333333c67.285333 0 128 50.986667 128 121.216V640a42.666667 42.666667 0 1 1-85.333334 0v-113.450667c0-16.554667-15.701333-35.882667-42.666666-35.882666s-42.666667 19.328-42.666667 35.882666V640a42.666667 42.666667 0 1 1-85.333333 0v-113.450667c0-70.208 60.714667-121.216 128-121.216z" fill="#000000" fill-opacity=".88" /></svg>