<?xml version="1.0" standalone="no"?><!DOCTYPE svg PUBLIC "-//W3C//DTD SVG 1.1//EN" "http://www.w3.org/Graphics/SVG/1.1/DTD/svg11.dtd"><svg class="icon" width="200px" height="200.00px" viewBox="0 0 1024 1024" version="1.1" xmlns="http://www.w3.org/2000/svg"><path d="M97.856 97.834667a42.666667 42.666667 0 0 1 60.330667 0l155.221333 155.221333c2.432 1.92 4.672 4.181333 6.677333 6.677333l131.413334 131.392 0.192 0.192 0.170666 0.192 311.893334 311.893334c2.730667 2.112 5.226667 4.608 7.424 7.424l155.008 155.008a42.666667 42.666667 0 0 1-60.330667 60.330666l-134.613333-134.613333C669.589333 827.648 596.138667 853.333333 512.021333 853.333333c-122.090667 0-221.653333-53.973333-295.402666-115.52-73.642667-61.482667-124.16-132.565333-149.44-172.586666-5.12-8.106667-12.330667-18.773333-15.850667-34.154667a92.117333 92.117333 0 0 1 0-38.122667c3.541333-15.402667 10.773333-26.112 15.893333-34.24 25.706667-40.682667 77.909333-114.176 154.453334-176.704L97.877333 158.165333a42.666667 42.666667 0 0 1 0-60.330666z m184.533333 244.885333c-69.930667 55.210667-118.805333 123.242667-143.018666 161.578667a390.890667 390.890667 0 0 0-4.693334 7.68V512a389.418667 389.418667 0 0 0 4.672 7.616c22.72 35.989333 67.690667 99.029333 131.968 152.682667C335.488 725.866667 416.32 768 512 768c57.728 0 109.952-15.317333 156.437333-39.232l-69.781333-69.781333A170.666667 170.666667 0 0 1 365.013333 425.322667l-82.624-82.624zM512.021333 170.666667c122.090667 0 221.653333 53.973333 295.402667 115.52 73.642667 61.482667 124.16 132.565333 149.44 172.586666 5.12 8.128 12.330667 18.773333 15.850667 34.176a92.117333 92.117333 0 0 1 0 38.144c-3.541333 15.36-10.773333 26.090667-15.914667 34.218667a789.12 789.12 0 0 1-61.504 84.181333 42.666667 42.666667 0 0 1-65.450667-54.784 704.426667 704.426667 0 0 0 58.282667-80.512c0.618667-1.024 0.96-1.749333 1.216-2.218666-0.256-0.448-0.618667-1.152-1.194667-2.112-0.874667-1.450667-1.92-3.114667-3.434666-5.504-22.741333-35.989333-67.712-99.029333-131.989334-152.682667C688.554667 298.133333 607.744 256 512.021333 256c-16.298667 0-32.106667 1.216-47.424 3.477333a42.666667 42.666667 0 0 1-12.48-84.416A409.088 409.088 0 0 1 512.021333 170.666667z m-85.333333 341.333333a85.333333 85.333333 0 0 0 107.413333 82.410667l-104.533333-104.533334A85.546667 85.546667 0 0 0 426.666667 512z" fill="#000000" /></svg>