<?xml version="1.0" standalone="no"?><!DOCTYPE svg PUBLIC "-//W3C//DTD SVG 1.1//EN" "http://www.w3.org/Graphics/SVG/1.1/DTD/svg11.dtd"><svg class="icon" width="200px" height="200.00px" viewBox="0 0 1024 1024" version="1.1" xmlns="http://www.w3.org/2000/svg"><path d="M512.021333 170.666667c122.090667 0 221.653333 53.973333 295.402667 115.52 73.642667 61.482667 124.16 132.565333 149.44 172.586666 4.48 7.125333 10.56 16.170667 14.357333 28.629334l1.493334 5.546666 0.853333 4.48c1.749333 10.794667 1.472 23.466667-0.853333 33.642667-3.52 15.36-10.730667 26.026667-15.850667 34.133333-25.301333 40.042667-75.797333 111.146667-149.44 172.608C733.653333 799.36 634.112 853.333333 512 853.333333c-122.090667 0-221.653333-53.973333-295.402667-115.52-73.642667-61.482667-124.16-132.565333-149.44-172.586666-5.12-8.106667-12.330667-18.773333-15.850666-34.154667a92.096 92.096 0 0 1 0-38.144c3.52-15.36 10.730667-26.026667 15.850666-34.133333 25.301333-40.042667 75.797333-111.146667 149.44-172.608C290.368 224.64 389.930667 170.666667 512.021333 170.666667z m0 85.333333c-95.701333 0-176.533333 42.133333-240.704 95.68C207.04 405.333333 162.069333 468.373333 139.306667 504.362667a377.493333 377.493333 0 0 0-4.672 7.594666v0.064l1.237333 2.112c0.874667 1.450667 1.92 3.114667 3.434667 5.504 22.741333 35.989333 67.712 99.029333 131.989333 152.682667C335.488 725.866667 416.32 768 512 768s176.533333-42.133333 240.704-95.68c64.277333-53.653333 109.248-116.693333 131.989333-152.682667 1.493333-2.368 2.56-4.053333 3.413334-5.504 0.618667-0.981333 0.96-1.664 1.216-2.133333-0.256-0.469333-0.597333-1.152-1.194667-2.133333a376.106667 376.106667 0 0 0-3.434667-5.504c-22.741333-35.989333-67.712-99.029333-131.989333-152.682667C688.554667 298.133333 607.722667 256 512.021333 256z m85.333334 256a85.333333 85.333333 0 1 0-170.666667 0 85.333333 85.333333 0 0 0 170.666667 0z m85.333333 0a170.666667 170.666667 0 1 1-341.333333 0 170.666667 170.666667 0 0 1 341.333333 0z" fill="#000000" /></svg>