<?xml version="1.0" standalone="no"?><!DOCTYPE svg PUBLIC "-//W3C//DTD SVG 1.1//EN" "http://www.w3.org/Graphics/SVG/1.1/DTD/svg11.dtd"><svg class="icon" width="200px" height="200.00px" viewBox="0 0 1024 1024" version="1.1" xmlns="http://www.w3.org/2000/svg"><path d="M810.666667 290.133333c0-36.544-0.042667-61.397333-1.6-80.597333-1.536-18.709333-4.288-28.288-7.68-34.944a85.354667 85.354667 0 0 0-37.312-37.290667c-6.656-3.413333-16.234667-6.186667-34.944-7.68C709.930667 128.021333 685.077333 128 648.533333 128H375.466667c-36.544 0-61.397333 0.042667-80.597334 1.6-18.709333 1.536-28.288 4.288-34.944 7.68a85.354667 85.354667 0 0 0-37.290666 37.312c-3.413333 6.656-6.186667 16.234667-7.68 34.944-1.578667 19.2-1.621333 44.053333-1.621334 80.597333v443.733334c0 36.544 0.042667 61.397333 1.6 80.597333 1.536 18.709333 4.288 28.288 7.68 34.944a85.376 85.376 0 0 0 37.312 37.290667c6.656 3.413333 16.234667 6.186667 34.944 7.68 19.2 1.578667 44.053333 1.621333 80.597334 1.621333h273.066666c36.544 0 61.397333-0.042667 80.597334-1.6 18.709333-1.536 28.288-4.288 34.944-7.68a85.376 85.376 0 0 0 37.290666-37.312c3.413333-6.656 6.186667-16.234667 7.68-34.944 1.578667-19.2 1.621333-44.053333 1.621334-80.597333V290.133333z m85.333333 443.733334c0 35.136 0.021333 64.064-1.898667 87.552-1.962667 23.978667-6.144 46.016-16.704 66.730666a170.666667 170.666667 0 0 1-74.581333 74.581334c-20.693333 10.56-42.752 14.741333-66.730667 16.704-23.466667 1.92-52.416 1.898667-87.552 1.898666H375.466667c-35.136 0-64.064 0.021333-87.552-1.898666-23.978667-1.962667-46.016-6.144-66.730667-16.704a170.666667 170.666667 0 0 1-74.581333-74.581334c-10.538667-20.693333-14.741333-42.752-16.704-66.730666C127.978667 797.952 128 769.002667 128 733.866667V290.133333c0-35.136-0.021333-64.064 1.898667-87.552 1.962667-23.978667 6.165333-46.016 16.704-66.730666a170.666667 170.666667 0 0 1 74.581333-74.581334c20.693333-10.538667 42.752-14.741333 66.730667-16.704C311.381333 42.645333 340.330667 42.666667 375.466667 42.666667h273.066666c35.136 0 64.064-0.021333 87.552 1.898666 23.978667 1.962667 46.016 6.165333 66.730667 16.704a170.666667 170.666667 0 0 1 74.581333 74.581334c10.56 20.693333 14.741333 42.752 16.704 66.730666 1.92 23.466667 1.898667 52.416 1.898667 87.552v443.733334z" fill="#000000" /></svg>