<?xml version="1.0" standalone="no"?><!DOCTYPE svg PUBLIC "-//W3C//DTD SVG 1.1//EN" "http://www.w3.org/Graphics/SVG/1.1/DTD/svg11.dtd"><svg class="icon" width="200px" height="200.00px" viewBox="0 0 1024 1024" version="1.1" xmlns="http://www.w3.org/2000/svg"><path d="M853.333333 332.8c0-36.544-0.042667-61.397333-1.6-80.597333-1.536-18.709333-4.288-28.288-7.68-34.944a85.354667 85.354667 0 0 0-37.312-37.290667c-6.656-3.413333-16.234667-6.186667-34.944-7.68C752.597333 170.688 727.744 170.666667 691.2 170.666667H332.8c-36.544 0-61.397333 0.042667-80.597333 1.6-18.709333 1.536-28.288 4.288-34.944 7.68a85.354667 85.354667 0 0 0-37.290667 37.312c-3.413333 6.656-6.186667 16.234667-7.68 34.944-1.578667 19.2-1.621333 44.053333-1.621333 80.597333v358.4c0 36.544 0.042667 61.397333 1.6 80.597333 1.536 18.709333 4.288 28.288 7.68 34.944a85.354667 85.354667 0 0 0 37.312 37.290667c6.656 3.413333 16.234667 6.186667 34.944 7.68 19.2 1.578667 44.053333 1.621333 80.597333 1.621333h358.4c36.544 0 61.397333-0.042667 80.597333-1.6 18.709333-1.536 28.288-4.288 34.944-7.68a85.376 85.376 0 0 0 37.290667-37.312c3.413333-6.656 6.186667-16.234667 7.68-34.944 1.578667-19.2 1.621333-44.053333 1.621333-80.597333V332.8z m-275.626666-55.424a42.666667 42.666667 0 0 1 34.88 20.672l192 320A42.666667 42.666667 0 0 1 768 682.666667H256a42.666667 42.666667 0 0 1-37.461333-63.104l128-234.666667A42.666667 42.666667 0 0 1 409.6 371.2l50.368 37.76 81.301333-113.749333 1.642667-2.133334a42.666667 42.666667 0 0 1 34.794667-15.701333z m-73.642667 216.746667a42.709333 42.709333 0 0 1-60.330667 9.344l-45.909333-34.432L327.893333 597.333333h364.778667l-119.765333-199.573333-68.821334 96.362667zM938.666667 691.2c0 35.136 0.021333 64.064-1.898667 87.552-1.962667 23.978667-6.144 46.016-16.704 66.730667a170.666667 170.666667 0 0 1-74.581333 74.581333c-20.693333 10.56-42.752 14.741333-66.730667 16.704-23.466667 1.92-52.416 1.898667-87.552 1.898667H332.8c-35.136 0-64.064 0.021333-87.552-1.898667-23.978667-1.962667-46.016-6.144-66.730667-16.704a170.666667 170.666667 0 0 1-74.581333-74.581333c-10.538667-20.693333-14.741333-42.752-16.704-66.730667C85.312 755.285333 85.333333 726.336 85.333333 691.2V332.8c0-35.136-0.021333-64.064 1.898667-87.552 1.962667-23.978667 6.165333-46.016 16.704-66.730667a170.666667 170.666667 0 0 1 74.581333-74.581333c20.693333-10.538667 42.752-14.741333 66.730667-16.704C268.714667 85.312 297.664 85.333333 332.8 85.333333h358.4c35.136 0 64.064-0.021333 87.552 1.898667 23.978667 1.962667 46.016 6.165333 66.730667 16.704a170.666667 170.666667 0 0 1 74.581333 74.581333c10.56 20.693333 14.741333 42.752 16.704 66.730667 1.92 23.466667 1.898667 52.416 1.898667 87.552v358.4z" fill="#000000" fill-opacity=".88" /></svg>