<?xml version="1.0" standalone="no"?><!DOCTYPE svg PUBLIC "-//W3C//DTD SVG 1.1//EN" "http://www.w3.org/Graphics/SVG/1.1/DTD/svg11.dtd"><svg class="icon" width="200px" height="200.00px" viewBox="0 0 1024 1024" version="1.1" xmlns="http://www.w3.org/2000/svg"><path d="M853.333333 657.664l-152.554666-152.554667c-8.96-8.96-13.866667-13.824-17.664-17.066666-0.170667-0.106667-0.32-0.213333-0.448-0.341334l-0.426667 0.362667c-3.818667 3.221333-8.746667 8.106667-17.685333 17.045333L316.330667 853.312 332.8 853.333333l383.722667-0.021333c23.296-0.085333 40.874667-0.426667 55.253333-1.578667 18.730667-1.536 28.309333-4.288 34.986667-7.68a85.376 85.376 0 0 0 37.290666-37.312c3.392-6.656 6.144-16.234667 7.68-34.944 1.557333-19.2 1.6-44.053333 1.6-80.597333v-33.536zM405.333333 362.666667a42.666667 42.666667 0 1 0-85.333333 0 42.666667 42.666667 0 0 0 85.333333 0z m448-29.866667c0-36.544-0.042667-61.397333-1.6-80.597333-1.536-18.709333-4.288-28.288-7.68-34.944a85.354667 85.354667 0 0 0-37.312-37.290667c-6.656-3.413333-16.234667-6.186667-34.944-7.68C752.597333 170.688 727.744 170.666667 691.2 170.666667H332.8c-36.544 0-61.397333 0.042667-80.597333 1.6-18.709333 1.536-28.288 4.288-34.944 7.68a85.354667 85.354667 0 0 0-37.290667 37.312c-3.413333 6.656-6.186667 16.234667-7.68 34.944-1.578667 19.2-1.621333 44.053333-1.621333 80.597333v358.4c0 36.544 0.042667 61.397333 1.6 80.597333 1.536 18.709333 4.288 28.288 7.68 34.944 7.189333 14.08 18.133333 25.877333 31.573333 34.069334 2.474667-3.754667 4.906667-6.762667 6.741333-8.938667 6.144-7.338667 14.634667-15.786667 23.168-24.32L604.224 444.8c7.957333-7.957333 15.701333-15.786667 22.784-21.76 7.466667-6.357333 16.917333-13.141333 29.290667-17.173333a85.376 85.376 0 0 1 46.272-1.813334l6.464 1.813334 4.501333 1.642666c10.197333 4.053333 18.261333 9.962667 24.789333 15.509334 7.082667 6.016 14.826667 13.824 22.784 21.76L853.333333 537.024V332.8zM490.666667 362.666667a128 128 0 1 1-256 0 128 128 0 0 1 256 0z m447.978666 353.728c-0.085333 24.064-0.426667 44.736-1.877333 62.357333-1.962667 23.978667-6.144 46.016-16.704 66.730667a170.666667 170.666667 0 0 1-74.581333 74.581333c-20.693333 10.56-42.752 14.741333-66.730667 16.704-17.621333 1.450667-38.293333 1.792-62.357333 1.877333L295.722667 938.666667c-12.074667 0-24.042667 0.042667-33.578667-0.810667-0.298667-0.021333-0.576-0.106667-0.896-0.128a444.373333 444.373333 0 0 1-16-0.96c-23.978667-1.962667-46.016-6.144-66.730667-16.704a170.666667 170.666667 0 0 1-74.581333-74.581333c-10.538667-20.693333-14.741333-42.752-16.704-66.730667C85.312 755.285333 85.333333 726.336 85.333333 691.2V332.8c0-35.136-0.021333-64.064 1.898667-87.552 1.962667-23.978667 6.165333-46.016 16.704-66.730667a170.666667 170.666667 0 0 1 74.581333-74.581333c20.693333-10.538667 42.752-14.741333 66.730667-16.704C268.714667 85.312 297.664 85.333333 332.8 85.333333h358.4c35.136 0 64.064-0.021333 87.552 1.898667 23.978667 1.962667 46.016 6.165333 66.730667 16.704a170.666667 170.666667 0 0 1 74.581333 74.581333c10.56 20.693333 14.741333 42.752 16.704 66.730667 1.92 23.466667 1.898667 52.416 1.898667 87.552l-0.021334 383.594667z" fill="#000000" fill-opacity=".88" /></svg>