<?xml version="1.0" standalone="no"?><!DOCTYPE svg PUBLIC "-//W3C//DTD SVG 1.1//EN" "http://www.w3.org/Graphics/SVG/1.1/DTD/svg11.dtd"><svg class="icon" width="200px" height="200.00px" viewBox="0 0 1024 1024" version="1.1" xmlns="http://www.w3.org/2000/svg"><path d="M896 657.664l-109.888-109.888c-8.96-8.96-13.866667-13.824-17.664-17.066667-0.170667-0.106667-0.32-0.213333-0.448-0.341333l-0.426667 0.362667c-3.818667 3.221333-8.746667 8.106667-17.685333 17.045333L657.664 640l199.466667 199.466667a85.290667 85.290667 0 0 0 29.589333-32.725334c3.392-6.656 6.144-16.234667 7.68-34.944 1.557333-19.2 1.6-44.053333 1.6-80.597333v-33.536z m-384.426667-41.6c-3.818667 3.221333-8.746667 8.106667-17.685333 17.045333L273.664 853.312 290.133333 853.333333h443.733334l16.426666-0.021333L530.133333 633.109333c-8.96-8.96-13.866667-13.824-17.685333-17.066666l-0.426667-0.341334-0.426666 0.362667zM384 384a42.666667 42.666667 0 1 0-85.333333 0 42.666667 42.666667 0 0 0 85.333333 0z m512-51.2c0-36.544-0.042667-61.397333-1.6-80.597333-1.536-18.709333-4.288-28.288-7.68-34.944a85.354667 85.354667 0 0 0-37.312-37.290667c-6.656-3.413333-16.234667-6.186667-34.944-7.68C795.264 170.688 770.410667 170.666667 733.866667 170.666667H290.133333c-36.544 0-61.397333 0.042667-80.597333 1.6-18.709333 1.536-28.288 4.288-34.944 7.68a85.354667 85.354667 0 0 0-37.290667 37.312c-3.413333 6.656-6.186667 16.234667-7.68 34.944-1.578667 19.2-1.621333 44.053333-1.621333 80.597333v358.4c0 36.544 0.042667 61.397333 1.6 80.597333 1.536 18.709333 4.288 28.288 7.68 34.944 6.826667 13.376 17.066667 24.618667 29.546667 32.746667l266.730666-266.709333c7.957333-7.957333 15.701333-15.786667 22.784-21.76 7.466667-6.357333 16.917333-13.141333 29.290667-17.173334a85.376 85.376 0 0 1 46.272-1.813333l6.464 1.813333 4.501333 1.642667c10.197333 4.053333 18.261333 9.962667 24.789334 15.509333 7.082667 6.016 14.826667 13.824 22.784 21.76l6.890666 6.912 92.224-92.224c7.957333-7.957333 15.701333-15.786667 22.784-21.76 7.466667-6.357333 16.917333-13.141333 29.290667-17.173333a85.376 85.376 0 0 1 46.272-1.813333l6.464 1.813333 4.501333 1.642667c10.197333 4.053333 18.261333 9.962667 24.789334 15.509333 7.082667 6.016 14.826667 13.824 22.784 21.76L896 537.024V332.8zM469.333333 384a128 128 0 1 1-256 0 128 128 0 0 1 256 0z m512 307.2c0 35.136 0.021333 64.064-1.898666 87.552-1.962667 23.978667-6.144 46.016-16.704 66.730667a170.666667 170.666667 0 0 1-74.581334 74.581333c-20.693333 10.56-42.752 14.741333-66.730666 16.704-23.466667 1.92-52.416 1.898667-87.552 1.898667H290.133333c-35.136 0-64.064 0.021333-87.552-1.898667-23.978667-1.962667-46.016-6.144-66.730666-16.704a170.666667 170.666667 0 0 1-74.581334-74.581333c-10.538667-20.693333-14.741333-42.752-16.704-66.730667C42.645333 755.285333 42.666667 726.336 42.666667 691.2V332.8c0-35.136-0.021333-64.064 1.898666-87.552 1.962667-23.978667 6.165333-46.016 16.704-66.730667a170.666667 170.666667 0 0 1 74.581334-74.581333c20.693333-10.538667 42.752-14.741333 66.730666-16.704C226.048 85.312 254.997333 85.333333 290.133333 85.333333h443.733334c35.136 0 64.064-0.021333 87.552 1.898667 23.978667 1.962667 46.016 6.165333 66.730666 16.704a170.666667 170.666667 0 0 1 74.581334 74.581333c10.56 20.693333 14.741333 42.752 16.704 66.730667 1.92 23.466667 1.898667 52.416 1.898666 87.552v358.4z" fill="#000000" fill-opacity=".88" /></svg>