<?xml version="1.0" standalone="no"?><!DOCTYPE svg PUBLIC "-//W3C//DTD SVG 1.1//EN" "http://www.w3.org/Graphics/SVG/1.1/DTD/svg11.dtd"><svg class="icon" width="200px" height="200.00px" viewBox="0 0 1024 1024" version="1.1" xmlns="http://www.w3.org/2000/svg"><path d="M533.333333 64c247.424 0 448 200.576 448 448s-200.576 448-448 448c-160.96 0-302.037333-84.906667-380.949333-212.181333a42.645333 42.645333 0 1 1 72.490667-44.970667C288.874667 806.08 403.136 874.666667 533.333333 874.666667c200.298667 0 362.666667-162.368 362.666667-362.666667S733.632 149.333333 533.333333 149.333333c-130.197333 0-244.437333 68.586667-308.458666 171.818667a42.666667 42.666667 0 1 1-72.490667-44.970667C231.317333 148.928 372.373333 64 533.333333 64z" fill="#000000" fill-opacity=".88" /><path d="M170.666667 362.666667c79.082667 0 128 76.224 128 149.333333 0 32.426667-9.642667 65.429333-27.242667 92.16 16.64 8.96 38.016 18.624 64.853333 27.84 62.506667 21.482667 151.893333 39.637333 273.002667 42.304 9.770667-14.421333 24.682667-23.637333 41.386667-23.637333 29.44 0 53.333333 28.650667 53.333333 64s-23.893333 64-53.333333 64c-14.784 0-28.16-7.210667-37.824-18.88-131.306667-2.389333-231.338667-22.016-304.298667-47.082667-47.36-16.256-84.629333-35.306667-111.68-54.357333-8.32 1.92-17.066667 2.986667-26.197333 2.986666-79.082667 0-128-76.224-128-149.333333s48.917333-149.333333 128-149.333333z m0 85.333333c-15.168 0-42.666667 19.285333-42.666667 64s27.498667 64 42.666667 64c15.168 0 42.666667-19.285333 42.666666-64s-27.498667-64-42.666666-64z" fill="#000000" fill-opacity=".88" /><path d="M716.501333 503.168a42.666667 42.666667 0 1 1 60.330667 60.330667 163.349333 163.349333 0 0 1-230.997333 0 42.666667 42.666667 0 1 1 60.330666-60.330667 78.016 78.016 0 0 0 110.336 0zM533.333333 320c23.573333 0 42.666667 23.893333 42.666667 53.333333s-19.093333 53.333333-42.666667 53.333334-42.666667-23.893333-42.666666-53.333334 19.093333-53.333333 42.666666-53.333333zM746.666667 320c23.573333 0 42.666667 23.893333 42.666666 53.333333s-19.093333 53.333333-42.666666 53.333334-42.666667-23.893333-42.666667-53.333334 19.093333-53.333333 42.666667-53.333333z" fill="#000000" fill-opacity=".88" /></svg>