<?xml version="1.0" standalone="no"?><!DOCTYPE svg PUBLIC "-//W3C//DTD SVG 1.1//EN" "http://www.w3.org/Graphics/SVG/1.1/DTD/svg11.dtd"><svg class="icon" width="200px" height="200.00px" viewBox="0 0 1024 1024" version="1.1" xmlns="http://www.w3.org/2000/svg"><path d="M128 810.666667a42.666667 42.666667 0 1 0 0 85.333333h768a42.666667 42.666667 0 1 0 0-85.333333H128z m748.010667-507.733334c-16.576-0.341333-29.504 6.976-36.330667 11.178667-7.36 4.544-15.786667 10.88-23.893333 16.981333l-164.970667 123.733334c-5.546667 4.16-11.989333 8.96-17.109333 13.546666-5.312 4.778667-13.12 12.714667-17.792 24.682667a64 64 0 0 0 0 46.4c4.672 11.989333 12.48 19.925333 17.792 24.704 5.12 4.608 11.562667 9.386667 17.109333 13.546667l164.970667 123.733333c8.106667 6.08 16.533333 12.458667 23.893333 17.002667 6.826667 4.202667 19.754667 11.477333 36.330667 11.136a64 64 0 0 0 49.066666-24.533334c10.197333-13.013333 12.117333-27.754667 12.842667-35.733333 0.789333-8.618667 0.746667-19.178667 0.746667-29.312V392.533333l-0.085334-15.210666a195.946667 195.946667 0 0 0-0.661333-14.122667c-0.725333-7.957333-2.645333-22.677333-12.864-35.712l-2.282667-2.773333a64 64 0 0 0-46.784-21.76zM128 586.666667a42.666667 42.666667 0 1 0 0 85.333333h384a42.666667 42.666667 0 1 0 0-85.333333H128z m725.333333 36.266666l-142.229333-106.666666 142.229333-106.666667v213.333333zM128 352a42.666667 42.666667 0 1 0 0 85.333333h384a42.666667 42.666667 0 1 0 0-85.333333H128zM128 128a42.666667 42.666667 0 1 0 0 85.333333h768a42.666667 42.666667 0 1 0 0-85.333333H128z" fill="#000000" fill-opacity=".88" /></svg>