<?xml version="1.0" standalone="no"?><!DOCTYPE svg PUBLIC "-//W3C//DTD SVG 1.1//EN" "http://www.w3.org/Graphics/SVG/1.1/DTD/svg11.dtd"><svg class="icon" width="200px" height="200.00px" viewBox="0 0 1024 1024" version="1.1" xmlns="http://www.w3.org/2000/svg"><path d="M554.666667 807.594667a300.992 300.992 0 0 1-85.333334 0V853.333333a42.666667 42.666667 0 1 0 85.333334 0v-45.738666zM128 469.333333a42.666667 42.666667 0 1 1 0 85.333334H85.333333a42.666667 42.666667 0 1 1 0-85.333334h42.666667z m810.666667 0a42.666667 42.666667 0 1 1 0 85.333334h-42.666667a42.666667 42.666667 0 1 1 0-85.333334h42.666667zM178.901333 178.901333a42.666667 42.666667 0 0 1 60.330667 0l25.6 25.6a42.666667 42.666667 0 1 1-60.330667 60.330667l-25.6-25.6a42.666667 42.666667 0 0 1 0-60.330667z m605.866667 0a42.666667 42.666667 0 0 1 60.330667 60.330667l-25.6 25.6a42.666667 42.666667 0 0 1-60.330667-60.330667l25.6-25.6zM469.333333 128V85.333333a42.666667 42.666667 0 1 1 85.333334 0v42.666667a42.666667 42.666667 0 1 1-85.333334 0z m256 384c0-117.824-95.509333-213.333333-213.333333-213.333333s-213.333333 95.509333-213.333333 213.333333 95.509333 213.333333 213.333333 213.333333 213.333333-95.509333 213.333333-213.333333z m85.333334 0c0 119.146667-69.76 221.952-170.666667 269.888V853.333333a128 128 0 0 1-256 0v-71.445333c-100.906667-47.936-170.666667-150.741333-170.666667-269.888 0-164.949333 133.717333-298.666667 298.666667-298.666667s298.666667 133.717333 298.666667 298.666667z" fill="#000000" fill-opacity=".88" /></svg>