<?xml version="1.0" standalone="no"?><!DOCTYPE svg PUBLIC "-//W3C//DTD SVG 1.1//EN" "http://www.w3.org/Graphics/SVG/1.1/DTD/svg11.dtd"><svg class="icon" width="200px" height="200.00px" viewBox="0 0 1024 1024" version="1.1" xmlns="http://www.w3.org/2000/svg"><path d="M396.501333 567.168a42.666667 42.666667 0 1 1 60.330667 60.330667L230.997333 853.333333H384a42.666667 42.666667 0 1 1 0 85.333334H128a42.666667 42.666667 0 0 1-42.666667-42.666667V640a42.666667 42.666667 0 1 1 85.333334 0v153.002667l225.834666-225.834667zM938.666667 384a42.666667 42.666667 0 1 1-85.333334 0v-153.002667L627.498667 456.832a42.666667 42.666667 0 1 1-60.330667-60.330667L793.002667 170.666667H640a42.666667 42.666667 0 1 1 0-85.333334h256a42.666667 42.666667 0 0 1 42.666667 42.666667v256z" fill="#000000" fill-opacity=".88" /></svg>