<?xml version="1.0" standalone="no"?><!DOCTYPE svg PUBLIC "-//W3C//DTD SVG 1.1//EN" "http://www.w3.org/Graphics/SVG/1.1/DTD/svg11.dtd"><svg class="icon" width="200px" height="200.00px" viewBox="0 0 1024 1024" version="1.1" xmlns="http://www.w3.org/2000/svg"><path d="M512 277.333333a42.666667 42.666667 0 0 1 42.666667 42.666667v85.333333h85.333333a42.666667 42.666667 0 1 1 0 85.333334h-85.333333v85.333333a42.666667 42.666667 0 1 1-85.333334 0v-85.333333h-85.333333a42.666667 42.666667 0 0 1 0-85.333334h85.333333v-85.333333a42.666667 42.666667 0 0 1 42.666667-42.666667z" fill="#000000" fill-opacity=".88" /><path d="M691.2 85.333333c35.136 0 64.064-0.021333 87.552 1.898667 23.978667 1.962667 46.016 6.165333 66.730667 16.704a170.666667 170.666667 0 0 1 74.581333 74.581333c10.538667 20.693333 14.741333 42.752 16.704 66.730667 1.92 23.466667 1.898667 52.416 1.898667 87.552v230.4c0 35.136 0 64.064-1.898667 87.552-1.962667 23.978667-6.165333 46.016-16.704 66.730667a170.666667 170.666667 0 0 1-74.581333 74.581333c-20.693333 10.538667-42.752 14.741333-66.730667 16.704-23.488 1.92-52.416 1.898667-87.552 1.898667h-107.370667c-28.330667 0-36.586667 0.213333-44.074666 1.749333a85.482667 85.482667 0 0 0-21.674667 7.573333c-6.826667 3.498667-13.397333 8.512-35.52 26.197334l-101.781333 81.429333c-8.213333 6.570667-16.64 13.376-24.042667 18.261333-6.698667 4.437333-19.733333 12.373333-36.693333 12.373334a64 64 0 0 1-50.069334-24.042667c-10.56-13.226667-12.501333-28.373333-13.226666-36.394667-0.789333-8.810667-0.746667-19.648-0.746667-30.165333v-57.386667c-16.725333-0.533333-31.061333-1.898667-44.16-5.418666a170.688 170.688 0 0 1-120.704-120.682667C84.949333 661.12 85.333333 634.261333 85.333333 597.333333V332.8c0-35.136-0.021333-64.064 1.898667-87.552 1.962667-23.978667 6.144-46.016 16.704-66.730667a170.666667 170.666667 0 0 1 74.581333-74.581333c20.693333-10.538667 42.752-14.741333 66.730667-16.704 23.466667-1.92 52.416-1.898667 87.530667-1.898667H691.2zM332.8 170.666667c-36.544 0-61.397333 0.042667-80.597333 1.6-18.709333 1.536-28.288 4.288-34.965334 7.68a85.376 85.376 0 0 0-37.290666 37.312c-3.392 6.656-6.144 16.234667-7.68 34.944-1.557333 19.2-1.6 44.053333-1.6 80.597333V597.333333c0 42.432 0.362667 55.253333 2.922666 64.746667a85.333333 85.333333 0 0 0 60.330667 60.330667c9.472 2.56 22.314667 2.922667 64.746667 2.922666a42.666667 42.666667 0 0 1 42.666666 42.666667v81.898667l87.893334-70.336c19.477333-15.573333 33.706667-27.2 50.026666-35.541334a170.730667 170.730667 0 0 1 43.306667-15.210666C540.565333 725.12 558.933333 725.333333 583.850667 725.333333H691.2c36.544 0 61.397333-0.042667 80.597333-1.6 18.688-1.536 28.266667-4.288 34.944-7.68a85.376 85.376 0 0 0 37.290667-37.312c3.413333-6.656 6.165333-16.234667 7.68-34.944 1.578667-19.2 1.621333-44.053333 1.621333-80.597333V332.8c0-36.544-0.042667-61.397333-1.6-80.597333-1.536-18.709333-4.288-28.288-7.68-34.944a85.376 85.376 0 0 0-37.312-37.290667c-6.677333-3.413333-16.256-6.186667-34.944-7.68C752.597333 170.688 727.744 170.666667 691.2 170.666667H332.8z" fill="#000000" fill-opacity=".88" /></svg>