<?xml version="1.0" standalone="no"?><!DOCTYPE svg PUBLIC "-//W3C//DTD SVG 1.1//EN" "http://www.w3.org/Graphics/SVG/1.1/DTD/svg11.dtd"><svg class="icon" width="200px" height="200.00px" viewBox="0 0 1024 1024" version="1.1" xmlns="http://www.w3.org/2000/svg"><path d="M599.573333 42.666667c213.056 0 386.261333 171.669333 386.261334 384 0 47.872-8.853333 93.781333-25.002667 136.149333-1.557333 4.074667-2.474667 6.485333-3.114667 8.256l-0.213333 0.597333 0.021333 0.170667c0.149333 1.408 0.384 3.328 0.853334 6.976l17.152 139.52c0.853333 6.784 1.856 14.656 2.090666 21.461333 0.234667 7.082667-0.064 18.112-5.354666 29.653334a64.021333 64.021333 0 0 1-32.917334 32.170666c-11.669333 5.013333-22.677333 5.077333-29.781333 4.672-6.784-0.384-14.634667-1.578667-21.397333-2.56l-135.893334-19.946666c-3.776-0.554667-5.76-0.832-7.210666-1.002667h-0.213334a441.557333 441.557333 0 0 0-9.152 3.349333 387.498667 387.498667 0 0 1-158.954666 23.786667C536.106667 910.165333 439.466667 981.333333 325.589333 981.333333c-31.04 0-60.949333-5.333333-88.832-15.146666-4.586667-1.642667-7.466667-2.666667-9.557333-3.349334a73.984 73.984 0 0 0-0.96-0.32l-0.213333 0.042667c-1.450667 0.170667-3.477333 0.426667-7.168 0.938667l-127.765334 17.429333a42.666667 42.666667 0 0 1-47.424-51.498667l26.069334-117.824c0.917333-4.096 1.408-6.293333 1.706666-7.914666l0.064-0.277334-0.298666-1.002666c-0.704-2.325333-1.749333-5.504-3.413334-10.645334A282.346667 282.346667 0 0 1 53.866667 704c0-112.064 65.450667-209.472 160.256-253.034667A386.794667 386.794667 0 0 1 213.333333 426.666667c0-212.330667 173.184-384 386.24-384zM325.589333 512c-101.973333 0-186.368 84.992-186.368 192 0 21.504 3.413333 42.090667 9.685334 61.269333 1.92 5.866667 4.202667 12.586667 5.738666 18.837334l1.237334 6.037333 0.64 4.672c0.469333 4.48 0.533333 8.533333 0.234666 13.482667-0.426667 7.68-2.325333 15.616-3.690666 21.76l-12.842667 58.026666 67.093333-9.152c5.546667-0.746667 12.736-1.834667 19.584-1.792 5.909333 0.042667 10.325333 0.490667 16.106667 1.642667 6.826667 1.365333 15.146667 4.416 22.144 6.912a181.248 181.248 0 0 0 60.437333 10.304C427.562667 896 512 811.029333 512 704c0-107.029333-84.437333-192-186.410667-192zM599.573333 128C433.130667 128 298.666667 261.973333 298.666667 426.666667v1.344A270.293333 270.293333 0 0 1 325.610667 426.666667C476.629333 426.666667 597.333333 551.808 597.333333 704c0 7.146667-0.298667 14.250667-0.810666 21.269333 1.002667 0 2.026667 0.064 3.050666 0.064 37.461333 0 73.237333-6.784 106.218667-19.136 6.378667-2.368 14.293333-5.482667 21.461333-6.997333l4.330667-0.810667a80.64 80.64 0 0 1 12.757333-1.002666c7.253333-0.042667 14.634667 1.152 20.288 1.984l124.842667 18.304-15.808-128.426667c-0.682667-5.482667-1.664-12.650667-1.493333-19.626667a80.853333 80.853333 0 0 1 1.984-16.490666c1.536-6.912 4.586667-14.570667 6.933333-20.736 12.522667-32.810667 19.413333-68.416 19.413333-105.728 0-164.693333-134.464-298.666667-300.928-298.666667z" fill="#000000" fill-opacity=".88" /></svg>