<?xml version="1.0" standalone="no"?><!DOCTYPE svg PUBLIC "-//W3C//DTD SVG 1.1//EN" "http://www.w3.org/Graphics/SVG/1.1/DTD/svg11.dtd"><svg class="icon" width="200px" height="200.00px" viewBox="0 0 1024 1024" version="1.1" xmlns="http://www.w3.org/2000/svg"><path d="M605.866667 42.666667c35.136 0 64.064-0.021333 87.552 1.898666 23.978667 1.962667 46.016 6.165333 66.730666 16.704a170.666667 170.666667 0 0 1 74.581334 74.581334c10.538667 20.693333 14.741333 42.752 16.704 66.730666 1.92 23.466667 1.898667 52.416 1.898666 87.552v137.344c2.858667 0.149333 5.632 0.277333 8.32 0.490667 16.853333 1.386667 33.642667 4.437333 49.792 12.650667a128 128 0 0 1 55.936 55.936c8.213333 16.149333 11.264 32.938667 12.629334 49.792 1.344 16.384 1.322667 36.352 1.322666 59.52v115.797333c0 19.306667 0 35.925333-0.917333 49.6-0.96 14.08-3.072 28.16-8.832 42.069333a128 128 0 0 1-69.269333 69.269334c-13.909333 5.76-27.989333 7.893333-42.026667 8.832-2.24 0.149333-4.565333 0.213333-6.954667 0.341333V938.666667a42.666667 42.666667 0 0 1-67.029333 35.050666l-92.842667-64.576c-14.293333-9.941333-17.216-11.754667-19.946666-13.013333a42.752 42.752 0 0 0-9.877334-3.093333c-2.944-0.533333-6.357333-0.704-23.765333-0.704H563.2c-23.189333 0-43.136 0.042667-59.52-1.28-16.853333-1.386667-33.642667-4.437333-49.792-12.650667a128.021333 128.021333 0 0 1-55.936-55.936c-8.213333-16.149333-11.264-32.938667-12.650667-49.792a435.776 435.776 0 0 1-1.173333-28.906667l-58.325333 59.072c-8.533333 8.661333-16.981333 17.237333-24.32 23.466667-6.250667 5.290667-19.456 16-37.824 17.493333a64 64 0 0 1-53.866667-22.101333c-11.989333-13.994667-13.866667-30.890667-14.613333-39.04-0.853333-9.6-0.810667-21.610667-0.810667-33.792v-65.706667a11.776 11.776 0 0 0-5.76-2.282666 170.709333 170.709333 0 0 1-144.149333-144.149334C42.538667 523.648 42.666667 508.8 42.666667 488.32v-198.186667c0-35.114667-0.021333-64.042667 1.898666-87.530666 1.962667-23.978667 6.144-46.016 16.704-66.730667a170.666667 170.666667 0 0 1 74.581334-74.581333c20.693333-10.538667 42.752-14.741333 66.730666-16.704C226.048 42.645333 254.997333 42.666667 290.133333 42.666667h315.733334z m-42.666667 469.333333c-24.597333 0-40.490667 0.042667-52.565333 1.024-11.605333 0.938667-15.893333 2.56-18.005334 3.626667a42.666667 42.666667 0 0 0-18.645333 18.645333c-1.066667 2.112-2.688 6.4-3.626667 18.005333-0.981333 12.074667-1.024 27.968-1.024 52.565334v107.285333c0 24.576 0.042667 40.469333 1.024 52.565333 0.938667 11.562667 2.56 15.872 3.626667 17.984 4.074667 8.042667 10.602667 14.570667 18.645333 18.645334 2.112 1.066667 6.4 2.688 18.005334 3.626666 12.074667 1.002667 27.968 1.024 52.565333 1.024h76.672c14.378667 0 26.88-0.149333 39.253333 2.133334 10.197333 1.877333 20.138667 5.013333 29.610667 9.28 11.456 5.205333 21.632 12.458667 33.429333 20.672l25.813334 17.92v-7.338667a42.666667 42.666667 0 0 1 42.666666-42.666667c20.48 0 33.706667 0 43.818667-0.704 9.706667-0.661333 13.44-1.792 15.210667-2.517333a42.666667 42.666667 0 0 0 23.082666-23.104c0.725333-1.792 1.877333-5.482667 2.538667-15.210667 0.682667-10.112 0.704-23.338667 0.704-43.797333V605.866667c0-24.597333-0.042667-40.490667-1.024-52.565334-0.938667-11.605333-2.56-15.893333-3.626667-18.005333a42.666667 42.666667 0 0 0-18.645333-18.645333c-2.112-1.066667-6.4-2.688-18.005333-3.626667-12.074667-0.981333-27.968-1.024-52.586667-1.024H563.2zM290.133333 128c-36.544 0-61.397333 0.042667-80.597333 1.6-18.709333 1.536-28.288 4.288-34.944 7.68a85.354667 85.354667 0 0 0-37.312 37.312c-3.392 6.656-6.144 16.234667-7.68 34.944-1.557333 19.2-1.6 44.053333-1.6 80.597333v198.165334c0 23.509333 0.106667 30.72 0.896 36.074666a85.333333 85.333333 0 0 0 72.064 72.064c37.888 5.546667 78.741333 35.626667 78.741333 85.866667v45.781333L384 622.485333V605.866667c0-23.168-0.021333-43.136 1.301333-59.52 1.386667-16.853333 4.437333-33.642667 12.650667-49.792a128 128 0 0 1 55.936-55.936c16.149333-8.213333 32.938667-11.264 49.792-12.650667C520.064 426.666667 540.010667 426.666667 563.2 426.666667H768v-136.533334c0-36.544-0.042667-61.397333-1.6-80.597333-1.536-18.709333-4.288-28.288-7.68-34.944a85.354667 85.354667 0 0 0-37.312-37.290667c-6.677333-3.413333-16.256-6.186667-34.944-7.68C667.264 128.021333 642.410667 128 605.866667 128H290.133333z" fill="#000000" fill-opacity=".88" /></svg>