<?xml version="1.0" standalone="no"?><!DOCTYPE svg PUBLIC "-//W3C//DTD SVG 1.1//EN" "http://www.w3.org/Graphics/SVG/1.1/DTD/svg11.dtd"><svg class="icon" width="200px" height="200.00px" viewBox="0 0 1024 1024" version="1.1" xmlns="http://www.w3.org/2000/svg"><path d="M170.666667 512v-85.333333a42.666667 42.666667 0 1 1 85.333333 0v85.333333c0 141.376 114.624 256 256 256s256-114.624 256-256v-85.333333a42.666667 42.666667 0 1 1 85.333333 0v85.333333c0 174.08-130.282667 317.653333-298.666666 338.666667V896h128a42.666667 42.666667 0 1 1 0 85.333333H341.333333a42.666667 42.666667 0 1 1 0-85.333333h128v-45.333333C300.949333 829.674667 170.666667 686.058667 170.666667 512z m426.666666-298.666667a85.333333 85.333333 0 0 0-170.666666 0v298.666667a85.333333 85.333333 0 0 0 170.666666 0V213.333333z m85.333334 298.666667a170.666667 170.666667 0 1 1-341.333334 0V213.333333a170.666667 170.666667 0 1 1 341.333334 0v298.666667z" fill="#000000" fill-opacity=".88" /></svg>