<?xml version="1.0" standalone="no"?><!DOCTYPE svg PUBLIC "-//W3C//DTD SVG 1.1//EN" "http://www.w3.org/Graphics/SVG/1.1/DTD/svg11.dtd"><svg class="icon" width="200px" height="200.00px" viewBox="0 0 1024 1024" version="1.1" xmlns="http://www.w3.org/2000/svg"><path d="M725.333333 277.333333c35.690667 0 69.12 19.2 94.933334 38.549334 27.221333 20.416 53.397333 46.741333 75.626666 71.765333a1014.656 1014.656 0 0 1 55.722667 68.949333 1007.872 1007.872 0 0 1 20.842667 29.226667l1.237333 1.770667 0.32 0.512 0.106667 0.149333 0.021333 0.064L938.666667 512c30.165333 30.165333 30.144 30.186667 30.144 30.186667l-0.832 0.853333-2.090667 2.026667a904.768 904.768 0 0 1-36.117333 32.661333 1062.613333 1062.613333 0 0 1-100.778667 76.437333C746.88 708.906667 631.488 768 512 768c-119.488 0-234.88-59.093333-317.013333-113.834667a1062.677333 1062.677333 0 0 1-100.757334-76.437333 904.938667 904.938667 0 0 1-36.117333-32.661333l-2.090667-2.048-0.853333-0.832L85.333333 512a9519.722667 9519.722667 0 0 1-35.498666-23.68l0.042666-0.064 0.106667-0.149333 0.32-0.512 1.237333-1.792 4.48-6.485334c3.861333-5.546667 9.429333-13.354667 16.362667-22.72 13.802667-18.645333 33.28-43.733333 55.722667-68.949333 22.229333-25.024 48.405333-51.349333 75.626666-71.765333C229.546667 296.512 262.976 277.333333 298.666667 277.333333c49.066667 0 96.64 12.202667 134.4 22.976 19.904 5.696 35.626667 10.56 50.368 14.4 14.954667 3.904 23.765333 5.290667 28.565333 5.290667 4.8 0 13.589333-1.386667 28.565333-5.290667 14.762667-3.84 30.464-8.704 50.368-14.4C628.693333 289.536 676.266667 277.333333 725.333333 277.333333z m0 85.333334c-36.266667 0-74.026667 9.130667-110.933333 19.690666-17.408 4.970667-36.394667 10.794667-52.288 14.933334-15.701333 4.096-33.578667 8.042667-50.112 8.042666-16.533333 0-34.410667-3.946667-50.112-8.042666-15.893333-4.16-34.88-9.962667-52.266667-14.933334C372.650667 371.797333 334.933333 362.666667 298.666667 362.666667c-6.976 0-21.546667 4.821333-43.733334 21.461333-20.757333 15.573333-42.602667 37.248-63.04 60.224a927.061333 927.061333 0 0 0-49.962666 61.717333c2.474667 2.154667 5.056 4.48 7.850666 6.869334a976.426667 976.426667 0 0 0 92.544 70.229333C320.213333 635.093333 418.154667 682.666667 512 682.666667c93.845333 0 191.786667-47.573333 269.653333-99.498667a976.661333 976.661333 0 0 0 92.586667-70.229333c2.773333-2.368 5.333333-4.714667 7.808-6.869334a926.442667 926.442667 0 0 0-49.941333-61.717333c-20.437333-22.976-42.282667-44.650667-63.04-60.224C746.88 367.488 732.309333 362.666667 725.333333 362.666667zM85.333333 512l-30.165333 30.165333a42.688 42.688 0 0 1-5.333333-53.845333L85.333333 512z m888.832-23.68a42.666667 42.666667 0 0 1-5.333333 53.845333L938.666667 512l35.498666-23.68z" fill="#000000" fill-opacity=".88" /><path d="M938.666667 469.333333a42.666667 42.666667 0 1 1 0 85.333334H85.333333a42.666667 42.666667 0 1 1 0-85.333334h853.333334z" fill="#000000" fill-opacity=".88" /></svg>