<?xml version="1.0" standalone="no"?><!DOCTYPE svg PUBLIC "-//W3C//DTD SVG 1.1//EN" "http://www.w3.org/Graphics/SVG/1.1/DTD/svg11.dtd"><svg class="icon" width="200px" height="200.00px" viewBox="0 0 1024 1024" version="1.1" xmlns="http://www.w3.org/2000/svg"><path d="M341.333333 768a85.333333 85.333333 0 1 0-170.666666 0 85.333333 85.333333 0 0 0 170.666666 0z m512-85.333333a85.333333 85.333333 0 1 0-170.666666 0 85.333333 85.333333 0 0 0 170.666666 0z m85.12 8.768A170.666667 170.666667 0 1 1 853.333333 534.869333V208.576c0-14.613333-0.042667-22.848-0.533333-28.736l-0.106667-0.725333c-0.213333 0-0.490667 0-0.746666 0.042666-5.888 0.448-14.016 1.770667-28.437334 4.181334l-375.466666 62.570666c-10.752 1.813333-16.490667 2.773333-20.586667 3.776l-0.384 0.106667-0.042667 0.426667c-0.32 4.202667-0.362667 10.026667-0.362666 20.949333V768l-0.213334 8.768A170.666667 170.666667 0 1 1 341.333333 620.202667V271.168c0-9.621333-0.042667-19.2 0.576-27.370667 0.661333-8.704 2.218667-18.816 6.912-29.248a85.333333 85.333333 0 0 1 30.592-36.138666 85.781333 85.781333 0 0 1 27.712-11.605334c7.936-1.941333 17.408-3.498667 26.88-5.077333l375.488-62.570667c12.928-2.133333 25.322667-4.266667 35.754667-5.077333 10.837333-0.853333 24.064-0.810667 37.802667 4.288a85.333333 85.333333 0 0 1 42.368 34.346667l1.92 3.2 2.517333 4.778666c5.333333 11.136 7.104 22.314667 7.936 31.786667 0.896 10.453333 0.874667 22.997333 0.874667 36.096V682.666667l-0.213334 8.768z" fill="#000000" fill-opacity=".88" /></svg>