<?xml version="1.0" standalone="no"?><!DOCTYPE svg PUBLIC "-//W3C//DTD SVG 1.1//EN" "http://www.w3.org/Graphics/SVG/1.1/DTD/svg11.dtd"><svg class="icon" width="200px" height="200.00px" viewBox="0 0 1024 1024" version="1.1" xmlns="http://www.w3.org/2000/svg"><path d="M409.6 204.8v204.8c0 22.613333-18.346667 40.96-40.96 40.96h-204.8a40.96 40.96 0 1 1 0-81.92h105.92l-134.890667-134.869333a40.96 40.96 0 0 1 57.941334-57.941334l134.869333 134.890667V204.8a40.96 40.96 0 1 1 81.92 0zM409.6 901.12v-204.8c0-22.613333-18.346667-40.96-40.96-40.96h-204.8a40.96 40.96 0 1 0 0 81.92h105.92l-134.890667 134.869333a40.96 40.96 0 0 0 57.941334 57.941334l134.869333-134.890667v105.92a40.96 40.96 0 1 0 81.92 0zM614.4 204.8v204.8c0 22.613333 18.346667 40.96 40.96 40.96h204.8a40.96 40.96 0 1 0 0-81.92h-105.92l134.890667-134.869333a40.96 40.96 0 0 0-57.941334-57.941334l-134.869333 134.890667V204.8a40.96 40.96 0 1 0-81.92 0zM614.4 901.12v-204.8c0-22.613333 18.346667-40.96 40.96-40.96h204.8a40.96 40.96 0 1 1 0 81.92h-105.92l134.890667 134.869333a40.96 40.96 0 0 1-57.941334 57.941334l-134.869333-134.890667v105.92a40.96 40.96 0 1 1-81.92 0z" fill="#000000" fill-opacity=".88" /></svg>