<?xml version="1.0" standalone="no"?><!DOCTYPE svg PUBLIC "-//W3C//DTD SVG 1.1//EN" "http://www.w3.org/Graphics/SVG/1.1/DTD/svg11.dtd"><svg class="icon" width="200px" height="200.00px" viewBox="0 0 1024 1024" version="1.1" xmlns="http://www.w3.org/2000/svg"><path d="M896 512c0-212.074667-171.925333-384-384-384S128 299.925333 128 512s171.925333 384 384 384a85.333333 85.333333 0 0 0 85.333333-85.333333v-21.333334c0-18.453333-0.085333-31.808 1.450667-43.605333a170.666667 170.666667 0 0 1 146.944-146.944C757.546667 597.248 770.88 597.333333 789.333333 597.333333h21.333334a85.333333 85.333333 0 0 0 85.333333-85.333333z m-682.666667 0a85.333333 85.333333 0 1 1 170.666667 0 85.333333 85.333333 0 0 1-170.666667 0z m384-170.666667a85.333333 85.333333 0 1 1 170.666667 0 85.333333 85.333333 0 0 1-170.666667 0z m-256-42.666666a85.333333 85.333333 0 1 1 170.666667 0 85.333333 85.333333 0 0 1-170.666667 0z m640 213.333333a170.666667 170.666667 0 0 1-170.666666 170.666667h-21.333334c-21.162667 0-27.626667 0.085333-32.490666 0.725333a85.333333 85.333333 0 0 0-73.450667 73.472c-0.64 4.842667-0.725333 11.306667-0.725333 32.469333v21.333334a170.666667 170.666667 0 0 1-170.666667 170.666666C252.8 981.333333 42.666667 771.2 42.666667 512S252.8 42.666667 512 42.666667s469.333333 210.133333 469.333333 469.333333z" fill="#000000" fill-opacity=".88" /></svg>