<?xml version="1.0" standalone="no"?><!DOCTYPE svg PUBLIC "-//W3C//DTD SVG 1.1//EN" "http://www.w3.org/Graphics/SVG/1.1/DTD/svg11.dtd"><svg class="icon" width="200px" height="200.00px" viewBox="0 0 1024 1024" version="1.1" xmlns="http://www.w3.org/2000/svg"><path d="M512 682.666667a64 64 0 1 1 0 128 64 64 0 0 1 0-128z" fill="#000000" fill-opacity=".88" /><path d="M706.453333 42.816c9.941333 0.149333 19.008 0.490667 27.2 1.173333 16.853333 1.365333 33.642667 4.416 49.792 12.629334a128 128 0 0 1 55.936 55.936c8.213333 16.149333 11.264 32.938667 12.650667 49.792C853.333333 178.730667 853.333333 198.677333 853.333333 221.866667v580.266666c0 23.189333 0.021333 43.136-1.322666 59.52-1.365333 16.853333-4.416 33.642667-12.629334 49.792a128 128 0 0 1-55.936 55.936c-16.149333 8.213333-32.938667 11.264-49.792 12.650667-16.384 1.322667-36.330667 1.301333-59.52 1.301333H349.866667c-23.168 0-43.136 0.021333-59.52-1.322666-16.853333-1.365333-33.642667-4.416-49.792-12.629334a128 128 0 0 1-55.936-55.936c-8.213333-16.149333-11.264-32.938667-12.629334-49.792C170.645333 845.269333 170.666667 825.322667 170.666667 802.133333V221.866667c0-23.189333-0.021333-43.136 1.322666-59.52 1.365333-16.853333 4.416-33.642667 12.629334-49.792a128 128 0 0 1 55.936-55.936c16.149333-8.213333 32.938667-11.264 49.792-12.629334C306.730667 42.645333 326.698667 42.666667 349.866667 42.666667h324.266666l32.32 0.149333zM349.866667 128c-24.597333 0-40.490667 0.042667-52.565334 1.024-11.605333 0.938667-15.893333 2.56-18.005333 3.626667a42.666667 42.666667 0 0 0-18.645333 18.645333c-1.066667 2.112-2.688 6.4-3.626667 18.005333C256.042667 181.376 256 197.269333 256 221.866667v580.266666c0 24.597333 0.042667 40.490667 1.024 52.586667 0.938667 11.584 2.56 15.872 3.626667 17.984a42.666667 42.666667 0 0 0 18.645333 18.645333c2.112 1.066667 6.4 2.688 17.984 3.626667 12.096 0.981333 27.989333 1.024 52.586667 1.024h324.266666c24.597333 0 40.490667-0.042667 52.586667-1.024 11.584-0.938667 15.872-2.56 17.984-3.626667a42.666667 42.666667 0 0 0 18.645333-18.645333c1.066667-2.112 2.688-6.4 3.626667-17.984 0.981333-12.096 1.024-27.989333 1.024-52.586667V221.866667c0-24.597333-0.042667-40.490667-1.024-52.565334-0.938667-11.605333-2.56-15.893333-3.626667-18.005333a42.666667 42.666667 0 0 0-18.645333-18.645333c-2.112-1.066667-6.4-2.688-17.984-3.626667a333.76 333.76 0 0 0-21.610667-0.874667L674.133333 128H349.866667z" fill="#000000" fill-opacity=".88" /></svg>