<?xml version="1.0" standalone="no"?><!DOCTYPE svg PUBLIC "-//W3C//DTD SVG 1.1//EN" "http://www.w3.org/Graphics/SVG/1.1/DTD/svg11.dtd"><svg class="icon" width="200px" height="200.00px" viewBox="0 0 1024 1024" version="1.1" xmlns="http://www.w3.org/2000/svg"><path d="M174.933333 122.773333a128 128 0 0 1 115.52 0c19.797333 10.026667 36.8 27.776 57.109334 48.085334l17.984 17.984c9.258667 9.365333 17.237333 17.962667 23.189333 27.114666a128 128 0 0 1 0 139.541334c-7.936 12.202667-19.498667 23.402667-32.853333 36.778666-2.453333 2.453333-3.712 3.712-4.586667 4.629334l-0.085333 0.469333 0.597333 1.322667 1.557333 3.242666a580.352 580.352 0 0 0 113.130667 159.36 580.437333 580.437333 0 0 0 159.402667 113.173334l3.242666 1.557333 1.258667 0.576 0.256-0.021333c0.085333 0 0.170667-0.042667 0.234667-0.064l4.650666-4.565334c13.376-13.376 24.597333-24.917333 36.8-32.853333a128 128 0 0 1 139.52 0c12.202667 7.936 23.424 19.477333 36.8 32.853333l8.32 8.32c20.309333 20.288 38.058667 37.290667 48.085334 57.109334a128 128 0 0 1 0 115.541333c-10.026667 19.776-27.776 36.778667-48.085334 57.088l-6.741333 6.72c-21.269333 21.290667-36.949333 37.44-58.517333 49.557333-23.466667 13.184-57.173333 21.973333-84.096 21.866667-24.384-0.064-41.941333-5.312-65.28-11.946667a854.997333 854.997333 0 0 1-371.946667-218.794666A854.976 854.976 0 0 1 51.605333 385.450667c-6.613333-23.317333-11.861333-40.853333-11.946666-65.237334-0.064-26.922667 8.704-60.650667 21.888-84.117333 12.096-21.546667 28.245333-37.226667 49.536-58.517333l6.72-6.72c20.309333-20.309333 37.333333-38.08 57.109333-48.085334z m77.013334 76.16a42.666667 42.666667 0 0 0-38.506667 0c-4.565333 2.282667-10.24 7.210667-35.264 32.256l-6.741333 6.72c-23.893333 23.893333-30.336 30.826667-35.498667 39.978667-5.973333 10.624-10.965333 29.866667-10.944 42.048 0.042667 10.837333 1.642667 17.386667 8.704 42.24a769.642667 769.642667 0 0 0 197.056 334.912 769.664 769.664 0 0 0 334.933333 197.056c24.810667 7.04 31.36 8.661333 42.197334 8.682667 12.181333 0.042667 31.424-4.970667 42.048-10.922667 9.173333-5.162667 16.085333-11.605333 39.978666-35.498667l6.741334-6.741333c25.045333-25.045333 29.952-30.72 32.256-35.264a42.688 42.688 0 0 0 0-38.528c-2.282667-4.544-7.210667-10.24-32.256-35.264l-8.32-8.32c-16.448-16.448-20.181333-19.818667-22.976-21.632a42.666667 42.666667 0 0 0-46.506667 0c-2.794667 1.813333-6.506667 5.184-22.954667 21.632-3.968 3.968-9.173333 9.344-15.488 13.866667a87.253333 87.253333 0 0 1-73.578666 12.565333c-7.381333-2.154667-13.354667-5.162667-17.877334-7.317333a665.685333 665.685333 0 0 1-182.784-129.728 665.706667 665.706667 0 0 1-129.728-182.805334c-2.176-4.501333-5.162667-10.496-7.317333-17.877333a87.253333 87.253333 0 0 1 12.544-73.557333c4.544-6.336 9.898667-11.52 13.866667-15.488 16.469333-16.469333 19.84-20.16 21.653333-22.976a42.666667 42.666667 0 0 0 0-46.506667c-1.813333-2.816-5.205333-6.528-21.632-22.954667l-8.32-8.32c-25.045333-25.045333-30.741333-29.973333-35.285333-32.277333z m305.642666 48.896a42.666667 42.666667 0 0 1 50.026667-33.706666 256 256 0 0 1 202.24 202.24 42.666667 42.666667 0 0 1-83.754667 16.341333 170.666667 170.666667 0 0 0-134.826666-134.826667 42.666667 42.666667 0 0 1-33.706667-50.048z m46.570667-204.885333a426.666667 426.666667 0 0 1 376.874667 376.384 42.666667 42.666667 0 0 1-84.778667 9.557333A341.354667 341.354667 0 0 0 594.752 127.701333a42.666667 42.666667 0 1 1 9.408-84.778666z" fill="#000000" fill-opacity=".88" /></svg>