<?xml version="1.0" standalone="no"?><!DOCTYPE svg PUBLIC "-//W3C//DTD SVG 1.1//EN" "http://www.w3.org/Graphics/SVG/1.1/DTD/svg11.dtd"><svg class="icon" width="200px" height="200.00px" viewBox="0 0 1024 1024" version="1.1" xmlns="http://www.w3.org/2000/svg"><path d="M654.890667 180.928a42.666667 42.666667 0 0 1 60.16 4.629333l128 149.333334a42.666667 42.666667 0 0 1 0 55.552l-128 149.333333a42.666667 42.666667 0 0 1-64.789334-55.552L717.888 405.333333H213.333333a42.666667 42.666667 0 0 1 0-85.333333h504.554667l-67.626667-78.890667a42.666667 42.666667 0 0 1 4.629334-60.16zM369.109333 479.594667a42.666667 42.666667 0 0 0-60.16 4.629333l-128 149.333333a42.666667 42.666667 0 0 0 0 55.552l128 149.333334a42.666667 42.666667 0 0 0 64.789334-55.552L306.112 704H810.666667a42.666667 42.666667 0 0 0 0-85.333333H306.112l67.626667-78.890667a42.666667 42.666667 0 0 0-4.629334-60.16z" fill="#000000" fill-opacity=".88" /></svg>