<?xml version="1.0" standalone="no"?><!DOCTYPE svg PUBLIC "-//W3C//DTD SVG 1.1//EN" "http://www.w3.org/Graphics/SVG/1.1/DTD/svg11.dtd"><svg class="icon" width="200px" height="200.00px" viewBox="0 0 1024 1024" version="1.1" xmlns="http://www.w3.org/2000/svg"><path d="M469.333333 896V128a42.666667 42.666667 0 1 1 85.333334 0v768a42.666667 42.666667 0 1 1-85.333334 0z m-192-128V256a42.666667 42.666667 0 1 1 85.333334 0v512a42.666667 42.666667 0 1 1-85.333334 0z m384 0V256a42.666667 42.666667 0 1 1 85.333334 0v512a42.666667 42.666667 0 1 1-85.333334 0zM85.333333 597.333333v-170.666666a42.666667 42.666667 0 1 1 85.333334 0v170.666666a42.666667 42.666667 0 1 1-85.333334 0z m768 0v-170.666666a42.666667 42.666667 0 1 1 85.333334 0v170.666666a42.666667 42.666667 0 1 1-85.333334 0z" fill="#000000" fill-opacity=".88" /></svg>