<?xml version="1.0" standalone="no"?><!DOCTYPE svg PUBLIC "-//W3C//DTD SVG 1.1//EN" "http://www.w3.org/Graphics/SVG/1.1/DTD/svg11.dtd"><svg class="icon" width="200px" height="200.00px" viewBox="0 0 1024 1024" version="1.1" xmlns="http://www.w3.org/2000/svg"><path d="M896 512c0-212.074667-171.925333-384-384-384S128 299.925333 128 512s171.925333 384 384 384 384-171.925333 384-384zM554.666667 725.333333V298.666667a42.666667 42.666667 0 1 1 85.333333 0v426.666666a42.666667 42.666667 0 1 1-85.333333 0z m-170.666667-85.333333V384a42.666667 42.666667 0 1 1 85.333333 0v256a42.666667 42.666667 0 1 1-85.333333 0z m-170.666667-85.333333v-85.333334a42.666667 42.666667 0 1 1 85.333334 0v85.333334a42.666667 42.666667 0 1 1-85.333334 0z m512 0v-85.333334a42.666667 42.666667 0 1 1 85.333334 0v85.333334a42.666667 42.666667 0 1 1-85.333334 0z m256-42.666667c0 259.2-210.133333 469.333333-469.333333 469.333333S42.666667 771.2 42.666667 512 252.8 42.666667 512 42.666667s469.333333 210.133333 469.333333 469.333333z" fill="#000000" fill-opacity=".88" /></svg>