<?xml version="1.0" standalone="no"?><!DOCTYPE svg PUBLIC "-//W3C//DTD SVG 1.1//EN" "http://www.w3.org/Graphics/SVG/1.1/DTD/svg11.dtd"><svg class="icon" width="200px" height="200.00px" viewBox="0 0 1024 1024" version="1.1" xmlns="http://www.w3.org/2000/svg"><path d="M938.666667 554.666667a42.666667 42.666667 0 0 1 42.666666 42.666666v256a42.666667 42.666667 0 0 1-85.333333 0v-126.144c-21.333333 23.850667-48.213333 52.437333-82.282667 86.506667-166.613333 166.613333-436.8 166.613333-603.434666 0a424.917333 424.917333 0 0 1-114.346667-206.933333 42.666667 42.666667 0 0 1 83.221333-18.88 339.541333 339.541333 0 0 0 91.498667 165.461333c133.290667 133.290667 349.397333 133.290667 482.688 0 50.261333-50.261333 83.456-87.04 105.301333-113.344H682.666667a42.666667 42.666667 0 0 1 0-85.333333h256zM210.282667 210.282667c166.613333-166.613333 436.8-166.613333 603.434666 0a424.917333 424.917333 0 0 1 114.346667 206.933333 42.666667 42.666667 0 0 1-83.221333 18.88 339.562667 339.562667 0 0 0-91.477334-165.461333c-133.312-133.290667-349.44-133.290667-482.709333 0C220.373333 320.896 187.2 357.674667 165.333333 384H341.333333a42.666667 42.666667 0 0 1 0 85.333333H85.333333a42.666667 42.666667 0 0 1-42.666666-42.666666V170.666667a42.666667 42.666667 0 0 1 85.333333 0v126.08c21.333333-23.829333 48.213333-52.394667 82.282667-86.464z" fill="#000000" fill-opacity=".88" /></svg>