<?xml version="1.0" standalone="no"?><!DOCTYPE svg PUBLIC "-//W3C//DTD SVG 1.1//EN" "http://www.w3.org/Graphics/SVG/1.1/DTD/svg11.dtd"><svg class="icon" width="200px" height="200.00px" viewBox="0 0 1024 1024" version="1.1" xmlns="http://www.w3.org/2000/svg"><path d="M853.333333 512c0-188.522667-152.810667-341.333333-341.333333-341.333333-94.293333 0-179.626667 38.186667-241.429333 100.053333-32.341333 32.362667-69.034667 76.224-98.56 113.28H341.333333a42.666667 42.666667 0 1 1 0 85.333333H85.333333a42.666667 42.666667 0 0 1-42.666666-42.666666V170.666667a42.666667 42.666667 0 1 1 85.333333 0v132.010666c25.685333-31.210667 54.890667-64.981333 82.197333-92.288A425.472 425.472 0 0 1 512 85.333333c235.648 0 426.666667 191.018667 426.666667 426.666667s-191.018667 426.666667-426.666667 426.666667c-194.56 0-358.613333-130.218667-409.984-308.16a42.666667 42.666667 0 0 1 81.984-23.68C225.088 749.248 356.458667 853.333333 512 853.333333c188.522667 0 341.333333-152.810667 341.333333-341.333333z" fill="#000000" fill-opacity=".88" /></svg>