<?xml version="1.0" standalone="no"?><!DOCTYPE svg PUBLIC "-//W3C//DTD SVG 1.1//EN" "http://www.w3.org/Graphics/SVG/1.1/DTD/svg11.dtd"><svg class="icon" width="200px" height="200.00px" viewBox="0 0 1024 1024" version="1.1" xmlns="http://www.w3.org/2000/svg"><path d="M469.333333 716.8c0-36.544-0.042667-61.397333-1.6-80.597333-1.536-18.709333-4.288-28.288-7.68-34.965334a85.376 85.376 0 0 0-37.312-37.269333c-6.656-3.413333-16.234667-6.186667-34.944-7.68-19.2-1.578667-44.053333-1.621333-80.597333-1.621333h-17.066667c-36.544 0-61.397333 0.042667-80.597333 1.6-18.709333 1.536-28.288 4.288-34.944 7.68a85.354667 85.354667 0 0 0-37.290667 37.290666c-3.413333 6.677333-6.186667 16.256-7.68 34.986667-1.578667 19.2-1.621333 44.032-1.621333 80.576l0.021333 42.389333c0.085333 23.296 0.426667 40.874667 1.578667 55.253334 1.536 18.709333 4.288 28.309333 7.68 34.986666a85.354667 85.354667 0 0 0 37.312 37.269334c6.656 3.413333 16.234667 6.186667 34.944 7.68 19.2 1.578667 44.053333 1.621333 80.597333 1.621333h17.066667c36.544 0 61.397333-0.042667 80.597333-1.6 18.709333-1.536 28.288-4.288 34.944-7.68a85.376 85.376 0 0 0 37.290667-37.312c3.413333-6.656 6.186667-16.256 7.68-34.944 1.578667-19.2 1.621333-44.053333 1.621333-80.597333v-17.066667zM896 768a42.666667 42.666667 0 1 1 85.333333 0c0 36.928 0.362667 63.765333-5.802666 86.826667a170.688 170.688 0 0 1-120.704 120.682666c-23.061333 6.186667-49.898667 5.824-86.826667 5.824a42.666667 42.666667 0 0 1 0-85.333333c42.432 0 55.253333-0.384 64.746667-2.922667a85.333333 85.333333 0 0 0 60.330666-60.330666c2.56-9.472 2.922667-22.314667 2.922667-64.746667z m0-170.666667v-170.666666a42.666667 42.666667 0 1 1 85.333333 0v170.666666a42.666667 42.666667 0 0 1-85.333333 0zM42.666667 256c0-36.928-0.362667-63.765333 5.802666-86.826667A170.688 170.688 0 0 1 169.173333 48.469333C192.213333 42.282667 219.072 42.666667 256 42.666667a42.666667 42.666667 0 1 1 0 85.333333c-42.432 0-55.253333 0.384-64.746667 2.922667a85.333333 85.333333 0 0 0-60.330666 60.330666C128.362667 200.725333 128 213.546667 128 256a42.666667 42.666667 0 0 1-85.333333 0z m853.333333 0c0-42.432-0.384-55.253333-2.922667-64.746667a85.333333 85.333333 0 0 0-60.330666-60.330666C823.274667 128.362667 810.453333 128 768 128a42.666667 42.666667 0 1 1 0-85.333333c36.928 0 63.765333-0.362667 86.826667 5.802666a170.688 170.688 0 0 1 120.704 120.704C981.717333 192.213333 981.333333 219.072 981.333333 256a42.666667 42.666667 0 0 1-85.333333 0zM597.333333 42.666667a42.666667 42.666667 0 1 1 0 85.333333h-170.666666a42.666667 42.666667 0 1 1 0-85.333333h170.666666z m-42.666666 691.2c0 35.136 0.021333 64.064-1.898667 87.552-1.962667 23.978667-6.165333 46.016-16.704 66.730666a170.112 170.112 0 0 1-4.288 7.850667H597.333333a42.666667 42.666667 0 1 1 0 85.333333H290.133333c-35.136 0-64.064 0.021333-87.552-1.898666-23.978667-1.962667-46.016-6.165333-66.730666-16.704a170.666667 170.666667 0 0 1-74.581334-74.581334c-10.538667-20.693333-14.741333-42.752-16.704-66.730666-1.450667-17.621333-1.792-38.293333-1.877333-62.357334L42.666667 426.666667a42.666667 42.666667 0 1 1 85.333333 0v65.557333c2.56-1.493333 5.184-2.922667 7.850667-4.288 20.693333-10.538667 42.752-14.741333 66.730666-16.704 23.466667-1.92 52.416-1.898667 87.552-1.898667h17.066667c35.136 0 64.064-0.021333 87.552 1.898667 23.978667 1.962667 46.016 6.165333 66.730667 16.704a170.666667 170.666667 0 0 1 74.581333 74.581333c10.538667 20.693333 14.741333 42.752 16.704 66.730667 1.92 23.466667 1.898667 52.416 1.898667 87.552v17.066667z" fill="#000000" fill-opacity=".88" /></svg>