<?xml version="1.0" standalone="no"?><!DOCTYPE svg PUBLIC "-//W3C//DTD SVG 1.1//EN" "http://www.w3.org/Graphics/SVG/1.1/DTD/svg11.dtd"><svg class="icon" width="200px" height="200.00px" viewBox="0 0 1024 1024" version="1.1" xmlns="http://www.w3.org/2000/svg"><path d="M810.666667 490.666667c0-176.725333-143.274667-320-320-320-176.725333 0-320 143.274667-320 320 0 176.725333 143.274667 320 320 320 86.016 0 164.096-33.962667 221.610666-89.173334 1.28-1.749333 2.666667-3.413333 4.224-4.992a43.093333 43.093333 0 0 1 4.992-4.266666A318.890667 318.890667 0 0 0 810.666667 490.666667z m85.333333 0c0 96.554667-33.792 185.216-90.176 254.826666l120.341333 120.32a42.666667 42.666667 0 1 1-60.330666 60.373334l-120.32-120.362667A403.584 403.584 0 0 1 490.666667 896C266.816 896 85.333333 714.517333 85.333333 490.666667S266.816 85.333333 490.666667 85.333333s405.333333 181.482667 405.333333 405.333334z" fill="#000000" fill-opacity=".88" /></svg>