<?xml version="1.0" standalone="no"?><!DOCTYPE svg PUBLIC "-//W3C//DTD SVG 1.1//EN" "http://www.w3.org/Graphics/SVG/1.1/DTD/svg11.dtd"><svg class="icon" width="200px" height="200.00px" viewBox="0 0 1024 1024" version="1.1" xmlns="http://www.w3.org/2000/svg"><path d="M361.152 421.482667a42.666667 42.666667 0 0 1 0 60.352l-150.848 150.826666a128 128 0 0 0 181.013333 181.034667l1.493334-1.493333a42.666667 42.666667 0 0 1 60.352 60.330666l-1.493334 1.493334c-83.328 83.328-218.389333 83.328-301.717333 0-83.306667-83.306667-83.306667-218.368 0-301.696l150.869333-150.826667a42.666667 42.666667 0 0 1 60.330667 0z" fill="#000000" fill-opacity=".88" /><path d="M602.517333 300.8a42.666667 42.666667 0 0 1-60.352 60.352l-150.826666-150.848a128 128 0 0 0-181.034667 181.013333l1.493333 1.493334A42.666667 42.666667 0 1 1 151.466667 453.184l-1.493334-1.493333c-83.328-83.328-83.328-218.389333 0-301.717334 83.306667-83.306667 218.368-83.306667 301.696 0l150.826667 150.869334zM874.026667 572.330667c83.328 83.328 83.328 218.389333 0 301.717333-83.306667 83.306667-218.368 83.306667-301.696 0l-150.826667-150.848a42.666667 42.666667 0 0 1 60.330667-60.352l150.826666 150.848a128 128 0 1 0 181.034667-181.013333l-1.493333-1.493334a42.666667 42.666667 0 1 1 60.330666-60.352l1.493334 1.493334zM572.330667 451.669333a85.333333 85.333333 0 1 1-120.661334 120.661334 85.333333 85.333333 0 0 1 120.661334-120.661334z" fill="#000000" fill-opacity=".88" /><path d="M874.026667 149.973333c83.328 83.306667 83.328 218.368 0 301.696l-150.826667 150.826667a42.666667 42.666667 0 1 1-60.352-60.330667l150.848-150.826666a128 128 0 0 0-181.013333-181.034667l-1.493334 1.493333a42.666667 42.666667 0 0 1-60.373333-60.330666l1.514667-1.493334c83.328-83.328 218.389333-83.328 301.717333 0z" fill="#000000" fill-opacity=".88" /></svg>