<?xml version="1.0" standalone="no"?><!DOCTYPE svg PUBLIC "-//W3C//DTD SVG 1.1//EN" "http://www.w3.org/Graphics/SVG/1.1/DTD/svg11.dtd"><svg class="icon" width="200px" height="200.00px" viewBox="0 0 1024 1024" version="1.1" xmlns="http://www.w3.org/2000/svg"><path d="M631.168 353.834667a42.666667 42.666667 0 0 1 60.330667 60.330666l-192 192a42.666667 42.666667 0 0 1-60.330667 0l-85.333333-85.333333a42.666667 42.666667 0 0 1 60.352-60.330667L469.333333 515.669333l161.834667-161.834666z" fill="#000000" fill-opacity=".88" /><path d="M518.122667 45.802667l6.101333 0.64 3.776 0.64c8.704 1.749333 16.704 4.949333 22.976 7.296L779.733333 140.16c28.672 10.773333 53.824 19.498667 72.896 36.309333a128.021333 128.021333 0 0 1 34.986667 50.496c9.066667 23.765333 8.405333 50.389333 8.405333 81.002667V512c0 120.597333-65.621333 221.141333-136.512 294.997333-71.381333 74.368-153.045333 126.890667-196.224 152.106667-8.106667 4.693333-18.837333 11.434667-33.386666 14.549333a90.922667 90.922667 0 0 1-35.776 0c-14.549333-3.114667-25.28-9.834667-33.386667-14.570666-43.178667-25.173333-124.842667-77.717333-196.224-152.085334C193.6 733.141333 128 632.597333 128 512v-204.053333c0-30.613333-0.64-57.237333 8.384-81.002667a128 128 0 0 1 34.986667-50.496c19.093333-16.810667 44.245333-25.536 72.917333-36.288l228.757333-85.76c7.168-2.709333 16.576-6.485333 26.752-7.957333 6.058667-0.874667 12.224-1.066667 18.325334-0.64z m-6.229334 85.248c-1.749333 0.576-4.117333 1.450667-8.853333 3.221333l-228.778667 85.802667c-35.2 13.184-42.005333 16.448-46.464 20.394666a42.666667 42.666667 0 0 0-11.669333 16.832c-2.112 5.546667-2.773333 13.056-2.773333 50.645334V512c0 88.832 48.64 169.152 112.725333 235.925333 63.616 66.282667 137.728 114.154667 177.664 137.450667l5.717333 3.306667c1.194667 0.682667 2.005333 1.088 2.56 1.365333 0.533333-0.277333 1.344-0.682667 2.538667-1.344 1.514667-0.853333 3.285333-1.92 5.717333-3.328 39.936-23.296 114.048-71.189333 177.664-137.450667C762.048 681.152 810.666667 600.832 810.688 512v-204.053333c0-37.589333-0.682667-45.098667-2.794667-50.645334a42.709333 42.709333 0 0 0-11.669333-16.853333c-4.48-3.925333-11.264-7.189333-46.464-20.373333L520.981333 134.272a261.269333 261.269333 0 0 0-8.853333-3.221333L512 130.986667l-0.106667 0.042666z" fill="#000000" fill-opacity=".88" /></svg>