<?xml version="1.0" standalone="no"?><!DOCTYPE svg PUBLIC "-//W3C//DTD SVG 1.1//EN" "http://www.w3.org/Graphics/SVG/1.1/DTD/svg11.dtd"><svg class="icon" width="200px" height="200.00px" viewBox="0 0 1024 1024" version="1.1" xmlns="http://www.w3.org/2000/svg"><path d="M512 640a42.666667 42.666667 0 0 1 42.666667 42.666667v128a42.666667 42.666667 0 0 1-85.333334 0v-128a42.666667 42.666667 0 0 1 42.666667-42.666667z" fill="#000000" fill-opacity=".88" /><path d="M856.469333 170.88c65.173333 4.757333 101.013333 79.232 64 133.098667l-3.946666 5.312L810.666667 441.621333V768c0 114.133333-89.642667 207.36-202.346667 213.056L597.333333 981.333333h-170.666666c-117.824 0-213.333333-95.509333-213.333334-213.333333V441.621333L107.456 309.333333v-0.021333C62.741333 253.397333 102.570667 170.688 174.08 170.666667h675.776l6.613333 0.213333zM279.978667 388.330667c12.117333 15.146667 18.688 33.984 18.688 53.333333V768l0.170666 6.592A128 128 0 0 0 426.666667 896h170.666666a128 128 0 0 0 128-128V441.621333l0.32-7.253333a85.354667 85.354667 0 0 1 18.389334-46.037333L849.856 256H174.122667l105.877333 132.309333z" fill="#000000" fill-opacity=".88" /><path d="M640 42.666667a42.666667 42.666667 0 0 1 0 85.333333H384a42.666667 42.666667 0 0 1 0-85.333333h256z" fill="#000000" fill-opacity=".88" /></svg>