<?xml version="1.0" standalone="no"?><!DOCTYPE svg PUBLIC "-//W3C//DTD SVG 1.1//EN" "http://www.w3.org/Graphics/SVG/1.1/DTD/svg11.dtd"><svg class="icon" width="200px" height="200.00px" viewBox="0 0 1024 1024" version="1.1" xmlns="http://www.w3.org/2000/svg"><path d="M443.733333 42.666667c11.242667 0 22.250667-0.021333 31.488 0.725333 9.770667 0.810667 21.290667 2.666667 32.853334 8.576 14.058667 7.146667 25.813333 18.048 34.005333 31.402667l3.285333 5.888 2.026667 4.352c4.330667 10.090667 5.845333 19.968 6.549333 28.501333 0.149333 1.898667 0.256 3.84 0.341334 5.888H733.866667c35.136 0 64.064-0.021333 87.552 1.898667 23.978667 1.962667 46.016 6.165333 66.730666 16.704a170.666667 170.666667 0 0 1 74.581334 74.581333c10.56 20.693333 14.741333 42.752 16.704 66.730667 1.216 14.805333 1.621333 31.765333 1.770666 51.072 0.042667 0.768 0.128 1.557333 0.128 2.346666 0 0.554667-0.085333 1.109333-0.106666 1.642667 0.064 10.176 0.106667 20.992 0.106666 32.490667v358.4c0 11.477333-0.042667 22.293333-0.106666 32.469333 0.021333 0.554667 0.106667 1.109333 0.106666 1.664 0 0.789333-0.085333 1.557333-0.128 2.346667-0.149333 19.306667-0.554667 36.266667-1.770666 51.072-1.962667 23.978667-6.144 46.016-16.704 66.730666a170.666667 170.666667 0 0 1-74.581334 74.581334c-20.693333 10.56-42.752 14.741333-66.730666 16.704-23.466667 1.92-52.416 1.898667-87.552 1.898666h-153.6c-11.242667 0-22.250667 0.021333-31.488-0.725333-9.770667-0.810667-21.290667-2.666667-32.853334-8.554667a85.376 85.376 0 0 1-37.290666-37.312c-5.909333-11.562667-7.765333-23.082667-8.576-32.853333a172.16 172.16 0 0 1-0.341334-5.888H290.133333c-35.136 0-64.064 0.021333-87.552-1.898667-23.978667-1.962667-46.016-6.144-66.730666-16.704a170.666667 170.666667 0 0 1-74.581334-74.581333c-10.538667-20.693333-14.741333-42.752-16.704-66.730667a717.056 717.056 0 0 1-1.770666-51.093333C42.752 684.224 42.666667 683.456 42.666667 682.666667c0-0.554667 0.085333-1.109333 0.106666-1.664A5297.066667 5297.066667 0 0 1 42.666667 648.533333V290.133333c0-11.498667 0.042667-22.314667 0.106666-32.490666C42.752 257.109333 42.666667 256.554667 42.666667 256c0-0.789333 0.085333-1.578667 0.128-2.346667 0.149333-19.306667 0.554667-36.266667 1.770666-51.072 1.962667-23.978667 6.165333-46.016 16.704-66.730666a170.666667 170.666667 0 0 1 74.581334-74.581334c20.693333-10.538667 42.752-14.741333 66.730666-16.704C226.048 42.645333 254.997333 42.666667 290.133333 42.666667h153.6zM554.666667 870.4c0 12.650667 0.042667 19.584 0.426666 24.554667l0.064 0.533333c0.192 0 0.362667 0.064 0.554667 0.085333 4.970667 0.405333 11.904 0.426667 24.554667 0.426667H682.666667v-85.333333h-128v59.733333z m213.333333 25.493333c19.008-0.128 33.92-0.469333 46.464-1.493333 18.709333-1.536 28.288-4.288 34.944-7.68a85.376 85.376 0 0 0 37.290667-37.312c3.413333-6.656 6.186667-16.234667 7.68-34.944 0.128-1.237333 0.213333-2.517333 0.298666-3.797333H768v85.226666zM341.333333 810.666667h128v-85.333334h-128v85.333334z m-211.733333-81.536c1.536 18.709333 4.288 28.288 7.68 34.944a85.354667 85.354667 0 0 0 37.312 37.290666c6.656 3.413333 16.234667 6.186667 34.944 7.68 12.522667 1.045333 27.456 1.386667 46.464 1.514667V725.333333H129.322667l0.277333 3.797334zM554.666667 725.333333h341.333333V384H554.666667v341.333333zM128 640h341.333333V298.666667H128v341.333333z m426.666667-341.333333h128v-85.333334h-128v85.333334z m213.333333 0h126.677333l-0.277333-3.797334c-1.536-18.709333-4.288-28.288-7.68-34.944a85.354667 85.354667 0 0 0-37.312-37.290666c-6.656-3.413333-16.234667-6.186667-34.944-7.68A647.104 647.104 0 0 0 768 213.397333V298.666667zM256 128.085333c-19.008 0.128-33.92 0.490667-46.464 1.514667-18.709333 1.536-28.288 4.288-34.944 7.68a85.354667 85.354667 0 0 0-37.290667 37.312c-3.413333 6.656-6.186667 16.234667-7.68 34.944-0.128 1.237333-0.213333 2.517333-0.277333 3.797333H256V128.085333zM341.333333 213.333333h128V153.6c0-12.650667-0.042667-19.584-0.426666-24.554667-0.021333-0.213333-0.085333-0.384-0.085334-0.554666l-0.533333-0.042667C463.317333 128 456.384 128 443.733333 128H341.333333v85.333333z" fill="#000000" fill-opacity=".88" /></svg>