<?xml version="1.0" standalone="no"?><!DOCTYPE svg PUBLIC "-//W3C//DTD SVG 1.1//EN" "http://www.w3.org/Graphics/SVG/1.1/DTD/svg11.dtd"><svg class="icon" width="200px" height="200.00px" viewBox="0 0 1024 1024" version="1.1" xmlns="http://www.w3.org/2000/svg"><path d="M876.501333 140.501333a42.666667 42.666667 0 1 1 60.330667 60.330667l-139.562667 139.541333a383.722667 383.722667 0 0 1 79.616 136.981334 42.666667 42.666667 0 0 1-81.066666 26.624C756.608 384.704 644.266667 298.666667 512 298.666667c-164.949333 0-298.666667 133.717333-298.666667 298.666666s133.717333 298.666667 298.666667 298.666667c132.288 0 244.608-86.037333 283.818667-205.312a42.666667 42.666667 0 0 1 81.066666 26.624C826.496 870.570667 682.24 981.333333 512 981.333333c-212.053333 0-384-171.925333-384-384 0-101.546667 39.424-193.877333 103.786667-262.528l-133.952-133.973333a42.666667 42.666667 0 1 1 60.330666-60.330667l138.688 138.688A382.229333 382.229333 0 0 1 512 213.333333a382.08 382.08 0 0 1 221.354667 70.293334l143.146666-143.125334z" fill="#000000" fill-opacity=".88" /></svg>