<?xml version="1.0" standalone="no"?><!DOCTYPE svg PUBLIC "-//W3C//DTD SVG 1.1//EN" "http://www.w3.org/Graphics/SVG/1.1/DTD/svg11.dtd"><svg class="icon" width="200px" height="200.00px" viewBox="0 0 1024 1024" version="1.1" xmlns="http://www.w3.org/2000/svg"><path d="M768 298.666667H256v435.2c0 36.544 0.042667 61.397333 1.6 80.597333 1.536 18.709333 4.288 28.288 7.68 34.944a85.376 85.376 0 0 0 37.312 37.290667c6.656 3.413333 16.234667 6.186667 34.944 7.68 19.2 1.578667 44.053333 1.621333 80.597333 1.621333h187.733334c36.544 0 61.397333-0.042667 80.597333-1.6 18.709333-1.536 28.288-4.288 34.944-7.68a85.376 85.376 0 0 0 37.290667-37.312c3.413333-6.656 6.186667-16.234667 7.68-34.944 1.578667-19.2 1.621333-44.053333 1.621333-80.597333V298.666667zM384 704V490.666667a42.666667 42.666667 0 1 1 85.333333 0v213.333333a42.666667 42.666667 0 1 1-85.333333 0z m170.666667 0V490.666667a42.666667 42.666667 0 1 1 85.333333 0v213.333333a42.666667 42.666667 0 1 1-85.333333 0zM477.866667 128c-24.597333 0-40.490667 0.042667-52.565334 1.024-11.605333 0.938667-15.893333 2.56-18.005333 3.626667a42.666667 42.666667 0 0 0-18.645333 18.645333c-1.066667 2.112-2.688 6.4-3.626667 18.005333-0.853333 10.624-0.96 24.192-0.981333 44.032h255.914666c0-19.84-0.106667-33.408-0.981333-44.032-0.938667-11.605333-2.56-15.893333-3.626667-18.005333a42.666667 42.666667 0 0 0-18.645333-18.645333c-2.112-1.066667-6.4-2.688-18.005333-3.626667C586.624 128.042667 570.730667 128 546.133333 128h-68.266666zM853.333333 733.866667c0 35.136 0.021333 64.064-1.898666 87.552-1.962667 23.978667-6.144 46.016-16.704 66.730666a170.666667 170.666667 0 0 1-74.581334 74.581334c-20.693333 10.56-42.752 14.741333-66.730666 16.704-23.466667 1.92-52.416 1.898667-87.552 1.898666h-187.733334c-35.136 0-64.064 0.021333-87.552-1.898666-23.978667-1.962667-46.016-6.144-66.730666-16.704a170.666667 170.666667 0 0 1-74.581334-74.581334c-10.538667-20.693333-14.741333-42.752-16.704-66.730666C170.645333 797.952 170.666667 769.002667 170.666667 733.866667V298.666667H128a42.666667 42.666667 0 1 1 0-85.333334h170.709333c0-19.584 0.106667-36.650667 1.28-50.986666 1.365333-16.853333 4.416-33.642667 12.629334-49.792a128 128 0 0 1 55.936-55.936c16.149333-8.213333 32.938667-11.264 49.792-12.629334C434.730667 42.645333 454.698667 42.666667 477.866667 42.666667h68.266666c23.168 0 43.136-0.021333 59.52 1.322666 16.853333 1.365333 33.642667 4.416 49.792 12.629334a128 128 0 0 1 55.936 55.936c8.213333 16.149333 11.264 32.938667 12.650667 49.792 1.152 14.336 1.258667 31.402667 1.258667 50.986666H896a42.666667 42.666667 0 1 1 0 85.333334h-42.666667v435.2z" fill="#000000" fill-opacity=".88" /></svg>