<?xml version="1.0" standalone="no"?><!DOCTYPE svg PUBLIC "-//W3C//DTD SVG 1.1//EN" "http://www.w3.org/Graphics/SVG/1.1/DTD/svg11.dtd"><svg class="icon" width="200px" height="200.00px" viewBox="0 0 1024 1024" version="1.1" xmlns="http://www.w3.org/2000/svg"><path d="M480 810.666667h64V213.333333h-64v597.333334zM810.666667 298.666667c0-20.48 0-33.685333-0.704-43.797334-0.661333-9.728-1.813333-13.44-2.56-15.210666a42.666667 42.666667 0 0 0-23.061334-23.082667c-1.792-0.725333-5.482667-1.877333-15.210666-2.538667C759.018667 213.354667 745.792 213.333333 725.333333 213.333333h-96v597.333334H682.666667a42.666667 42.666667 0 1 1 0 85.333333H341.333333a42.666667 42.666667 0 1 1 0-85.333333h53.333334V213.333333H298.666667c-20.48 0-33.685333 0-43.797334 0.704-9.728 0.661333-13.44 1.813333-15.210666 2.56a42.666667 42.666667 0 0 0-23.082667 23.061334c-0.725333 1.792-1.877333 5.482667-2.538667 15.210666C213.354667 264.981333 213.333333 278.208 213.333333 298.666667a42.666667 42.666667 0 1 1-85.333333 0c0-19.306667 0-35.925333 0.917333-49.6 0.96-14.08 3.072-28.16 8.832-42.026667a128 128 0 0 1 69.269334-69.290667c13.909333-5.76 27.968-7.872 42.026666-8.832C262.784 127.978667 279.381333 128 298.666667 128h426.666666c19.285333 0 35.925333 0 49.6 0.917333 14.08 0.96 28.16 3.072 42.026667 8.832a128 128 0 0 1 69.290667 69.269334c5.76 13.909333 7.872 27.968 8.832 42.026666 0.938667 13.717333 0.917333 30.314667 0.917333 49.621334a42.666667 42.666667 0 1 1-85.333333 0z" fill="#000000" fill-opacity=".88" /></svg>