<?xml version="1.0" standalone="no"?><!DOCTYPE svg PUBLIC "-//W3C//DTD SVG 1.1//EN" "http://www.w3.org/Graphics/SVG/1.1/DTD/svg11.dtd"><svg class="icon" width="200px" height="200.00px" viewBox="0 0 1024 1024" version="1.1" xmlns="http://www.w3.org/2000/svg"><path d="M512 597.333333c149.376 0 281.984 72.192 366.144 183.594667 7.573333 10.026667 15.872 20.842667 21.717333 31.253333 6.72 11.989333 11.690667 25.856 11.370667 42.709334a86.250667 86.250667 0 0 1-9.344 36.266666c-4.992 10.005333-12.629333 20.928-23.296 29.290667-14.229333 11.178667-29.696 15.146667-43.456 16.789333-12.608 1.493333-27.669333 1.429333-42.688 1.429334H231.573333c-15.04 0-30.08 0.085333-42.709333-1.429334-13.76-1.664-29.226667-5.632-43.456-16.768a86.314667 86.314667 0 0 1-23.296-29.312 86.293333 86.293333 0 0 1-9.344-36.266666c-0.298667-16.853333 4.672-30.72 11.392-42.709334 5.824-10.410667 14.122667-21.248 21.674667-31.253333C230.016 669.525333 362.624 597.333333 512 597.333333z m0 85.333334c-121.130667 0-229.098667 58.432-298.069333 149.717333-4.224 5.568-7.466667 9.856-10.133334 13.610667-2.026667 2.837333-3.413333 4.949333-4.373333 6.528 6.336 0.725333 15.36 0.810667 32.149333 0.810666h560.853334c16.746667 0 25.792-0.106667 32.128-0.810666a105.92 105.92 0 0 0-4.330667-6.528c-2.688-3.754667-5.930667-8.042667-10.154667-13.610667C741.098667 741.077333 633.130667 682.666667 512 682.666667zM512 85.333333c129.6 0 234.666667 105.066667 234.666667 234.666667s-105.066667 234.666667-234.666667 234.666667-234.666667-105.066667-234.666667-234.666667S382.4 85.333333 512 85.333333z m0 85.333334a149.333333 149.333333 0 1 0 0 298.666666 149.333333 149.333333 0 0 0 0-298.666666z" fill="#000000" /></svg>