<?xml version="1.0" standalone="no"?><!DOCTYPE svg PUBLIC "-//W3C//DTD SVG 1.1//EN" "http://www.w3.org/Graphics/SVG/1.1/DTD/svg11.dtd"><svg class="icon" width="200px" height="200.00px" viewBox="0 0 1024 1024" version="1.1" xmlns="http://www.w3.org/2000/svg"><path d="M520.533333 170.666667c35.136 0 64.064-0.021333 87.552 1.898666 23.978667 1.962667 46.016 6.165333 66.730667 16.704a170.666667 170.666667 0 0 1 74.581333 74.581334c10.56 20.693333 14.741333 42.752 16.704 66.730666 1.749333 21.418667 1.877333 47.36 1.877334 78.421334l82.24-82.24c8.533333-8.533333 16.981333-17.024 24.32-23.189334 6.272-5.248 19.477333-15.765333 37.76-17.194666l3.84-0.192a64 64 0 0 1 47.296 19.584l2.56 2.837333 2.133333 2.645333c10.026667 13.354667 11.733333 28.586667 12.373333 36.224 0.853333 9.536 0.832 21.504 0.832 33.578667v261.888c0 12.074667 0.042667 24.042667-0.810666 33.578667-0.725333 8.149333-2.602667 24.917333-14.506667 38.869333a64 64 0 0 1-53.696 22.229333c-18.304-1.429333-31.509333-11.946667-37.76-17.194666-7.36-6.165333-15.786667-14.656-24.32-23.189334l-82.261333-82.261333c0 31.061333-0.128 57.024-1.877334 78.442667-1.962667 23.978667-6.144 46.016-16.704 66.730666a170.666667 170.666667 0 0 1-74.581333 74.581334c-20.693333 10.56-42.752 14.741333-66.730667 16.704-23.466667 1.92-52.416 1.898667-87.552 1.898666H290.133333c-35.136 0-64.064 0.021333-87.552-1.898666-23.978667-1.962667-46.016-6.144-66.730666-16.704a170.666667 170.666667 0 0 1-74.581334-74.581334c-10.538667-20.693333-14.741333-42.752-16.704-66.730666C42.645333 669.952 42.666667 641.002667 42.666667 605.866667v-187.733334c0-35.136-0.021333-64.064 1.898666-87.552 1.962667-23.978667 6.165333-46.016 16.704-66.730666a170.666667 170.666667 0 0 1 74.581334-74.581334c20.693333-10.538667 42.752-14.741333 66.730666-16.704C226.048 170.645333 254.997333 170.666667 290.133333 170.666667h230.4z m265.130667 341.333333L896 622.336V401.664L785.664 512zM128 605.866667c0 36.544 0.042667 61.397333 1.6 80.597333 1.536 18.709333 4.288 28.288 7.68 34.944a85.354667 85.354667 0 0 0 37.312 37.290667c6.656 3.413333 16.234667 6.186667 34.944 7.68 19.2 1.578667 44.053333 1.621333 80.597333 1.621333h230.4c36.544 0 61.397333-0.042667 80.597334-1.6 18.709333-1.536 28.288-4.288 34.944-7.68a85.376 85.376 0 0 0 37.290666-37.312c3.413333-6.656 6.186667-16.234667 7.68-34.944 1.578667-19.2 1.621333-44.053333 1.621334-80.597333v-187.733334c0-36.544-0.042667-61.397333-1.6-80.597333-1.536-18.709333-4.288-28.288-7.68-34.944a85.376 85.376 0 0 0-37.312-37.290667c-6.656-3.413333-16.234667-6.186667-34.944-7.68-19.2-1.578667-44.053333-1.621333-80.597334-1.621333H290.133333c-36.544 0-61.397333 0.042667-80.597333 1.6-18.709333 1.536-28.288 4.288-34.944 7.68a85.354667 85.354667 0 0 0-37.290667 37.312c-3.413333 6.656-6.186667 16.234667-7.68 34.944-1.578667 19.2-1.621333 44.053333-1.621333 80.597333v187.733334z" fill="#000000" fill-opacity=".88" /></svg>