<?xml version="1.0" standalone="no"?><!DOCTYPE svg PUBLIC "-//W3C//DTD SVG 1.1//EN" "http://www.w3.org/Graphics/SVG/1.1/DTD/svg11.dtd"><svg class="icon" width="200px" height="200.00px" viewBox="0 0 1024 1024" version="1.1" xmlns="http://www.w3.org/2000/svg"><path d="M446.784 115.52a64 64 0 0 1 47.317333 19.584l2.56 2.837333 2.133334 2.645334c10.026667 13.376 11.733333 28.586667 12.373333 36.245333 0.853333 9.536 0.832 21.504 0.832 33.578667v603.178666c0 12.074667 0.042667 24.064-0.810667 33.6-0.725333 8.149333-2.602667 24.938667-14.506666 38.890667a64 64 0 0 1-53.696 22.229333c-18.304-1.450667-31.509333-11.968-37.76-17.216-7.36-6.144-15.786667-14.656-24.32-23.189333l-135.082667-135.061333a262.762667 262.762667 0 0 0-7.424-7.296l-0.128-0.106667h-0.149333a263.978667 263.978667 0 0 0-10.389334-0.106667H153.6c-11.242667 0-22.250667 0.042667-31.488-0.725333-9.770667-0.789333-21.290667-2.688-32.853333-8.576a85.376 85.376 0 0 1-37.290667-37.290667c-5.909333-11.584-7.765333-23.082667-8.576-32.853333C42.666667 636.672 42.666667 625.664 42.666667 614.4v-204.8c0-11.221333-0.021333-22.229333 0.725333-31.488 0.810667-9.749333 2.666667-21.269333 8.576-32.853333a85.354667 85.354667 0 0 1 37.290667-37.290667c11.562667-5.909333 23.082667-7.765333 32.853333-8.554667 9.237333-0.768 20.266667-0.746667 31.488-0.746666h74.133333c5.568 0 8.362667 0 10.389334-0.106667h0.149333l0.128-0.085333c1.493333-1.365333 3.477333-3.349333 7.424-7.296l135.082667-135.061334c8.533333-8.533333 16.96-17.045333 24.32-23.189333 6.250667-5.248 19.456-15.786667 37.76-17.237333l3.797333-0.170667z m-145.408 240.789333a104.746667 104.746667 0 0 1-18.453333 15.125334c-7.637333 4.672-15.957333 8.128-24.682667 10.24a104.746667 104.746667 0 0 1-23.744 2.346666H153.6c-12.650667 0-19.584 0-24.554667 0.426667-0.213333 0-0.384 0.042667-0.554666 0.064l-0.042667 0.533333C128 390.016 128 396.970667 128 409.621333v204.8c0 12.629333 0.042667 19.562667 0.426667 24.533334l0.064 0.533333c0.170667 0 0.362667 0.064 0.554666 0.085333 4.970667 0.405333 11.904 0.426667 24.554667 0.426667h80.896a104.746667 104.746667 0 0 1 23.744 2.346667c6.528 1.578667 12.842667 3.904 18.816 6.954666l5.866667 3.264 3.52 2.325334c5.696 3.968 10.666667 8.597333 14.933333 12.8L426.666667 792.981333V230.997333l-125.290667 125.312z" fill="#000000" fill-opacity=".88" /><path d="M817.664 178.688a42.666667 42.666667 0 0 1 59.541333 9.728A552.341333 552.341333 0 0 1 981.333333 512c0 120.704-38.613333 232.533333-104.106666 323.584a42.666667 42.666667 0 0 1-69.290667-49.813333A467.050667 467.050667 0 0 0 896 512c0-102.208-32.64-196.693333-88.064-273.749333a42.666667 42.666667 0 0 1 9.728-59.562667zM647.402667 306.346667a42.666667 42.666667 0 0 1 59.392 10.581333A339.989333 339.989333 0 0 1 768 512c0 72.469333-22.613333 139.797333-61.226667 195.093333a42.666667 42.666667 0 0 1-69.973333-48.853333A254.656 254.656 0 0 0 682.666667 512c0-54.442667-16.938667-104.789333-45.866667-146.24a42.666667 42.666667 0 0 1 10.602667-59.413333z" fill="#000000" fill-opacity=".88" /></svg>