<?xml version="1.0" standalone="no"?><!DOCTYPE svg PUBLIC "-//W3C//DTD SVG 1.1//EN" "http://www.w3.org/Graphics/SVG/1.1/DTD/svg11.dtd"><svg class="icon" width="200px" height="200.00px" viewBox="0 0 1024 1024" version="1.1" xmlns="http://www.w3.org/2000/svg"><path d="M703.04 490.688a42.666667 42.666667 0 0 1 38.912 23.125333l192 373.333334a42.666667 42.666667 0 0 1-75.882667 39.04L809.642667 832h-195.264l-42.24 92.394667a42.666667 42.666667 0 0 1-77.632-35.456l170.688-373.333334a42.688 42.688 0 0 1 37.845333-24.917333z m-49.664 256h112.362667l-59.477334-115.669333L653.376 746.666667z" fill="#000000" fill-opacity=".88" /><path d="M128 618.666667a42.666667 42.666667 0 0 1 42.666667 42.666666v106.666667a85.333333 85.333333 0 0 0 85.333333 85.333333h106.666667a42.666667 42.666667 0 0 1 0 85.333334h-106.666667a170.666667 170.666667 0 0 1-170.666667-170.666667v-106.666667a42.666667 42.666667 0 0 1 42.666667-42.666666z" fill="#000000" fill-opacity=".88" /><path d="M298.666667 64a42.666667 42.666667 0 0 1 42.666666 42.666667v42.666666h42.666667a149.333333 149.333333 0 0 1 0 298.666667h-42.666667v85.333333a42.666667 42.666667 0 0 1-85.333333 0v-85.333333h-42.666667a149.333333 149.333333 0 0 1 0-298.666667h42.666667V106.666667a42.666667 42.666667 0 0 1 42.666667-42.666667z m-85.333334 170.666667a64 64 0 0 0 0 128h42.666667v-128h-42.666667z m128 128h42.666667a64 64 0 0 0 0-128h-42.666667v128z" fill="#000000" fill-opacity=".88" /><path d="M768 85.333333a170.666667 170.666667 0 0 1 170.666667 170.666667v106.666667a42.666667 42.666667 0 0 1-85.333334 0v-106.666667a85.333333 85.333333 0 0 0-85.333333-85.333333h-106.666667a42.666667 42.666667 0 0 1 0-85.333334h106.666667z" fill="#000000" fill-opacity=".88" /></svg>